<svg width="218" height="81" viewBox="0 0 218 81" fill="none" xmlns="http://www.w3.org/2000/svg">
<path d="M84.9272 42.7645H86.7362V50.5569H92.9515V52.7369H86.7362V64.7501C86.7362 65.5386 86.9217 66.1415 87.3392 66.6054C87.7566 67.0228 88.2668 67.2547 88.9162 67.2547C90.8179 67.2547 91.7919 65.4922 91.9311 61.9671H93.74C93.6936 63.8224 93.4153 65.353 92.8587 66.4662C92.3021 67.6258 91.5136 68.4607 90.4932 69.1101C89.4728 69.713 88.3132 70.0377 87.0145 70.0377C85.9013 70.0377 84.9272 69.8058 84.0923 69.342C83.2575 68.8781 82.6081 68.1824 82.0979 67.3011C81.5877 66.3735 81.3557 65.3994 81.3557 64.3326V52.6905H78.0162V50.5105C80.057 50.5105 81.6804 49.7684 82.7936 48.4696C83.9068 47.1709 84.6489 45.2692 84.9272 42.7645M29.546 65.8169C30.52 68.6462 31.3549 70.5479 32.1434 71.5684C32.6536 72.2177 33.2102 72.5424 33.7668 72.5424C34.277 72.5424 34.6945 72.3569 34.9728 71.9394C35.2511 71.522 35.4366 70.6871 35.5294 69.342H37.5702C37.5702 71.8466 36.8745 73.8411 35.5757 75.279C34.277 76.7169 32.6536 77.459 30.6592 77.459C28.7111 77.459 27.134 76.8096 25.9745 75.5109C24.8149 74.2122 24.0728 71.893 23.7481 68.5535C23.0523 68.6926 22.3102 68.8318 21.6145 68.9245C20.8605 69.0185 20.1015 69.065 19.3417 69.0637C14.5643 69.0637 10.4826 67.3939 7.23575 64.0543C3.94256 60.7147 2.31915 56.4939 2.31915 51.3454C2.31915 46.1969 3.94256 41.976 7.23575 38.6364C10.4826 35.2969 14.5643 33.6271 19.4345 33.6271C24.3047 33.6271 28.4328 35.2969 31.7723 38.6364C35.1119 41.976 36.7817 46.1505 36.7817 51.0671C36.7817 54.082 36.2251 56.8186 35.0655 59.1841C33.8596 61.5496 32.0506 63.776 29.546 65.8169M27.366 60.2973C28.1081 57.5143 28.5255 54.3139 28.5255 50.696C28.5255 46.9854 28.1545 44.1096 27.366 41.976C26.5775 39.8888 25.5106 38.3118 24.1192 37.3377C22.7277 36.3173 21.197 35.8535 19.4345 35.8535C17.6719 35.8535 16.0949 36.3637 14.7034 37.4305C13.3119 38.4509 12.3379 39.9352 11.6885 41.7905C10.8536 44.4343 10.4362 47.6347 10.4362 51.4381C10.4362 56.0301 11.0392 59.6479 12.2915 62.2454C12.3843 60.0654 13.08 58.3492 14.3787 57.0969C15.6775 55.8445 17.4864 55.2415 19.7592 55.2415C21.4289 55.2415 22.8668 55.659 24.1192 56.4939C25.3715 57.3288 26.4847 58.6275 27.366 60.2973M23.7481 65.4458L23.7945 64.1935C23.7945 61.9671 23.3306 60.2509 22.4494 59.1377C21.5681 57.9781 20.4085 57.4215 19.017 57.4215C17.8111 57.4215 16.7906 57.8854 15.9094 58.813C15.0281 59.7407 14.6106 60.9003 14.6106 62.2454C14.6106 63.4977 15.0281 64.7037 15.8166 65.8632C17.0226 66.4662 18.1821 66.7445 19.3881 66.7445C20.2694 66.7445 21.0579 66.6518 21.8 66.4198C22.5421 66.1879 23.1915 65.8632 23.7481 65.4458" fill="#221F20"/>
<path d="M36.5962 50.5107L45.0379 50.0469V62.6167C45.0379 63.7762 45.3626 64.7039 45.9656 65.3997C46.6149 66.0954 47.4034 66.4201 48.4239 66.4201C49.8617 66.4201 50.9749 65.8635 51.8098 64.7039C52.6447 63.5907 53.0621 62.2456 53.0621 60.715V54.546C53.0621 53.8039 52.8766 53.2473 52.4592 52.8762C52.0417 52.5052 51.4851 52.3197 50.7894 52.3197H49.8617V50.4643L58.3962 50.0005V65.3069C58.3962 66.0026 58.6281 66.5128 59.0456 66.9303C59.463 67.3014 60.0196 67.5333 60.7153 67.5333H61.5966V69.435L53.7579 69.6669C53.4332 68.3218 53.2477 66.8839 53.2013 65.3533C51.9026 67.0231 50.6502 68.1826 49.4443 68.832C48.2383 69.5277 46.986 69.8524 45.6873 69.8524C44.3885 69.8524 43.3217 69.5741 42.4404 69.0175C41.5592 68.4609 40.8634 67.626 40.3532 66.4665C39.843 65.3069 39.5647 63.869 39.5647 62.1992V54.6852C39.5647 53.8503 39.3792 53.2937 38.9617 52.9226C38.5443 52.5516 37.7558 52.366 36.5962 52.366V50.5107V50.5107ZM69.5745 49.4903C71.7081 49.4903 73.6098 49.9541 75.4187 50.8818C77.1813 51.8094 78.48 52.969 79.3613 54.4533C80.2426 55.9375 80.66 57.7001 80.66 59.7873C80.66 63.0805 79.5468 65.6316 77.2741 67.3941C75.0013 69.1567 72.4502 70.038 69.6209 70.038C67.58 70.038 65.7711 69.5741 64.1013 68.6928C62.4315 67.7652 61.1328 66.5592 60.2515 65.0286C59.3702 63.4979 58.9064 61.7354 58.9064 59.8337C58.9064 56.9116 59.9268 54.4533 61.9677 52.5052C63.9158 50.4643 66.4668 49.4903 69.5745 49.4903M69.6673 51.392C68.2758 51.392 67.1626 51.995 66.3277 53.2473C65.4928 54.4997 65.0753 56.6333 65.0753 59.7409C65.0753 62.9414 65.4928 65.1677 66.3277 66.3737C67.1626 67.5797 68.2758 68.1826 69.6673 68.1826C71.1051 68.1826 72.2647 67.5797 73.0996 66.3273C73.9809 65.075 74.3983 62.895 74.3983 59.8337C74.3983 56.6797 73.9809 54.4997 73.0996 53.2473C72.2647 51.995 71.1051 51.392 69.6673 51.392M92.9515 50.5107L101.347 50.1397V66.1882C101.347 66.6056 101.486 66.9303 101.764 67.1622C102.043 67.3941 102.46 67.5333 103.017 67.5333H104.269V69.435H92.9515V67.5333H94.2039C94.8996 67.5333 95.3634 67.3941 95.6417 67.0694C95.92 66.7448 96.0592 66.2345 96.0592 65.446V54.4997C96.0592 53.8039 95.8736 53.2937 95.4562 52.9226C95.1779 52.6443 94.5285 52.6907 93.8328 52.6907H92.9979V50.5107H92.9515V50.5107ZM98.1464 39.6107C99.0277 39.6107 99.8162 39.9354 100.466 40.5848C101.115 41.2341 101.44 42.0226 101.44 42.9039C101.44 43.8316 101.115 44.6201 100.466 45.2231C99.8162 45.8724 99.0277 46.1971 98.1464 46.1971C97.2188 46.1971 96.4302 45.8724 95.8273 45.2231C95.1779 44.5737 94.8532 43.7852 94.8532 42.9039C94.8532 41.9762 95.1779 41.2341 95.8273 40.5848C96.4302 39.9354 97.2188 39.6107 98.1464 39.6107ZM125.976 50.5107L134.372 50.1397V66.1882C134.372 66.6056 134.511 66.9303 134.789 67.1622C135.067 67.3941 135.485 67.5333 136.041 67.5333H137.294V69.435H125.976V67.5333H127.229C127.924 67.5333 128.388 67.3941 128.666 67.0694C128.945 66.7448 129.084 66.2345 129.084 65.446V54.4997C129.084 53.8039 128.898 53.2937 128.481 52.9226C128.203 52.6443 127.553 52.6907 126.857 52.6907H126.023V50.5107H125.976V50.5107ZM131.171 39.6107C132.052 39.6107 132.841 39.9354 133.49 40.5848C134.14 41.2341 134.464 42.0226 134.464 42.9039C134.464 43.8316 134.14 44.6201 133.49 45.2231C132.841 45.8724 132.052 46.1971 131.171 46.1971C130.243 46.1971 129.455 45.8724 128.852 45.2231C128.203 44.5737 127.878 43.7852 127.878 42.9039C127.878 41.9762 128.203 41.2341 128.852 40.5848C129.501 39.9354 130.243 39.6107 131.171 39.6107Z" fill="#221F20"/>
<path d="M113.546 39.4713L122.915 39.1002V63.8223C122.915 65.0747 123.008 65.956 123.147 66.3734C123.332 66.7909 123.564 67.1155 123.935 67.3011C124.306 67.4866 124.956 67.533 125.976 67.533V69.4347L118.23 69.6666L117.674 66.0023C116.468 67.533 115.401 68.5998 114.473 69.11C113.499 69.6202 112.293 69.8985 110.855 69.8985C108.258 69.8985 106.171 69.0172 104.547 67.3011C102.924 65.5849 102.089 63.2194 102.089 60.2509C102.089 56.9577 102.97 54.3602 104.686 52.4585C106.403 50.5568 108.536 49.5828 111.087 49.5828C112.479 49.5828 113.685 49.8611 114.751 50.464C115.818 51.067 116.792 52.0411 117.674 53.3862V44.8053C117.674 43.7849 117.581 43.0428 117.395 42.6253C117.21 42.1615 116.978 41.8832 116.653 41.6977C116.329 41.5121 115.679 41.4658 114.705 41.4658H113.592V39.4713H113.546ZM112.896 52.0875C111.319 52.0875 110.16 52.7832 109.417 54.1283C108.768 55.2415 108.49 57.004 108.49 59.4623C108.49 61.5032 108.675 62.9875 109 64.0079C109.371 65.0283 109.835 65.7704 110.484 66.2343C111.134 66.7445 111.876 66.9764 112.711 66.9764C114.102 66.9764 115.169 66.3734 116.004 65.2138C117.117 63.6832 117.674 61.7351 117.674 59.3232C117.674 57.0968 117.21 55.3343 116.236 54.0355C115.308 52.7368 114.195 52.0875 112.896 52.0875M158.212 67.0692L159.047 68.507C158.212 69.0636 157.47 69.4811 156.821 69.6666C156.171 69.8985 155.429 69.9913 154.687 69.9913C153.528 69.9913 152.6 69.7594 151.858 69.2492C151.162 68.7389 150.513 67.8577 149.91 66.4662C148.518 67.8113 147.312 68.7389 146.199 69.2492C145.132 69.7594 143.88 69.9913 142.489 69.9913C140.587 69.9913 139.103 69.5738 138.036 68.6926C136.969 67.8113 136.459 66.6981 136.459 65.353C136.459 63.3121 137.433 61.6887 139.427 60.4828C141.004 59.5087 144.437 58.5347 149.771 57.5606V54.824C149.771 53.7572 149.4 52.876 148.704 52.1802C148.008 51.4845 147.034 51.1598 145.828 51.1598C144.9 51.1598 144.112 51.3453 143.416 51.7628C142.952 51.9947 142.72 52.273 142.72 52.5049C142.72 52.644 142.813 52.8296 142.999 53.1079C143.37 53.7109 143.555 54.3138 143.555 54.9168C143.555 55.6589 143.323 56.2619 142.813 56.7258C142.303 57.1896 141.654 57.4215 140.819 57.4215C139.937 57.4215 139.195 57.1896 138.685 56.6794C138.129 56.1692 137.897 55.5198 137.897 54.7313C137.897 53.4326 138.592 52.273 140.03 51.2989C141.793 50.0466 143.973 49.4436 146.617 49.4436C148.611 49.4436 150.327 49.7683 151.904 50.3713C152.878 50.7423 153.667 51.4381 154.316 52.4121C154.919 53.3862 155.244 54.5921 155.244 56.03V65.6313C155.244 66.3734 155.383 66.8836 155.661 67.2083C155.94 67.533 156.311 67.6721 156.774 67.6721C157.053 67.6721 157.563 67.4866 158.212 67.0692M149.817 59.3232C146.941 59.6943 144.993 60.2972 143.973 61.1321C142.952 61.967 142.442 63.0338 142.442 64.3326C142.442 65.2602 142.674 66.0023 143.138 66.5126C143.602 67.0228 144.297 67.2547 145.132 67.2547C146.477 67.2547 147.591 66.7909 148.472 65.8168C149.353 64.8428 149.817 63.544 149.817 61.9206V59.3232V59.3232Z" fill="#221F20"/>
<path d="M182.749 67.5331V69.4348H171.385V67.5331H172.591C173.24 67.5331 173.704 67.3939 173.983 67.0693C174.307 66.7446 174.446 66.2808 174.446 65.6778V57.468C174.446 56.0765 174.122 55.0097 173.472 54.2676C172.823 53.5254 171.988 53.1544 170.968 53.1544C169.576 53.1544 168.417 53.6646 167.535 54.7314C166.654 55.7982 166.19 57.3288 166.19 59.3697V65.6778C166.19 66.2808 166.329 66.7446 166.654 67.0693C166.979 67.3939 167.396 67.5331 167.86 67.5331H169.298V69.4348H157.47V67.5331H159.001C159.604 67.5331 160.021 67.3939 160.346 67.0693C160.671 66.7446 160.81 66.2808 160.81 65.6778V54.4531C160.81 53.8037 160.578 53.2935 160.16 52.9225C159.743 52.5514 159.14 52.3659 158.444 52.3659H157.702V50.6033L165.587 50.1859C165.866 51.3454 166.097 52.7369 166.237 54.3139C167.35 52.8297 168.509 51.7165 169.762 50.9744C171.014 50.2322 172.313 49.8612 173.704 49.8612C175.606 49.8612 177.044 50.5105 178.157 51.7165C179.224 52.9688 179.78 54.7314 179.78 56.9578V65.7242C179.78 66.3735 179.92 66.8837 180.244 67.162C180.569 67.4403 181.033 67.6259 181.729 67.6259H182.749V67.5331ZM191.051 49.4901C193.139 49.4901 195.087 49.9539 196.896 50.8816C198.658 51.8093 199.957 52.9688 200.838 54.4531C201.72 55.9373 202.137 57.6999 202.137 59.7871C202.137 63.0803 201.024 65.6314 198.751 67.3939C196.478 69.1565 193.927 70.0378 191.098 70.0378C189.057 70.0378 187.248 69.5739 185.578 68.6927C183.909 67.765 182.61 66.559 181.729 65.0284C180.847 63.4978 180.383 61.7352 180.383 59.8335C180.383 56.9114 181.404 54.4531 183.445 52.505C185.393 50.4642 187.944 49.4901 191.051 49.4901M191.144 51.3918C189.753 51.3918 188.64 51.9948 187.805 53.2471C186.97 54.4995 186.552 56.6331 186.552 59.7408C186.552 62.9412 186.97 65.1676 187.805 66.3735C188.64 67.5795 189.753 68.1825 191.144 68.1825C192.582 68.1825 193.742 67.5795 194.577 66.3271C195.458 65.0748 195.875 62.8948 195.875 59.8335C195.875 56.6795 195.458 54.4995 194.577 53.2471C193.742 51.9948 192.582 51.3918 191.144 51.3918" fill="#221F20"/>
<path d="M42.9506 72.4034H43.5536L44.8987 74.166V72.4034H45.5481V75.2792H44.9915L43.6 73.4239V75.2792H42.9506V72.4034Z" fill="#BEBEBE"/>
<path d="M46.4757 73.8409C46.4757 73.006 47.1251 72.3567 48.0063 72.3567C48.8876 72.3567 49.537 73.006 49.537 73.8409C49.537 74.6758 48.8876 75.3252 48.0063 75.3252C47.0787 75.3252 46.4757 74.6758 46.4757 73.8409ZM48.8876 73.8409C48.8876 73.3307 48.5166 72.9133 48.0063 72.9133C47.4961 72.9133 47.1251 73.3307 47.1251 73.7946C47.1251 74.3048 47.4961 74.7222 48.0063 74.7222C48.5166 74.7222 48.8876 74.3512 48.8876 73.8409Z" fill="#BEBEBE"/>
<path d="M50.4647 72.4034H51.0676L52.4127 74.166V72.4034H53.0621V75.2792H52.5055L51.114 73.4239V75.2792H50.4647V72.4034Z" fill="#BEBEBE"/>
<path d="M55.6595 72.4034H57.0047C57.3757 72.4034 57.654 72.4962 57.8395 72.6817C57.9787 72.8209 58.0715 73.0528 58.0715 73.3311C58.0715 73.7949 57.8395 74.0732 57.4685 74.2124L58.1642 75.2328H57.4221L56.8191 74.3051H56.3089V75.2328H55.6595V72.4034ZM56.9583 73.7949C57.283 73.7949 57.4685 73.6094 57.4685 73.3775C57.4685 73.0992 57.283 72.96 56.9583 72.96H56.3089V73.7949H56.9583ZM59.0455 72.4034H59.6949V75.2792H59.0455V72.4034V72.4034Z" fill="#BEBEBE"/>
<path d="M60.6226 73.8409C60.6226 73.006 61.2255 72.3567 62.1532 72.3567C62.7098 72.3567 63.0345 72.5422 63.3128 72.8205L62.8953 73.2843C62.6634 73.0988 62.4315 72.9597 62.1532 72.9597C61.643 72.9597 61.3183 73.3771 61.3183 73.8409C61.3183 74.3512 61.643 74.7686 62.1532 74.7686C62.4779 74.7686 62.6634 74.6295 62.8953 74.4439L63.3128 74.8614C63.0345 75.186 62.6634 75.3716 62.1068 75.3716C61.2255 75.3252 60.6226 74.6758 60.6226 73.8409V73.8409Z" fill="#BEBEBE"/>
<path d="M64.1476 72.4034H66.3276V72.96H64.797V73.563H66.1421V74.1196H64.797V74.7226H66.374V75.2792H64.1476V72.4034V72.4034Z" fill="#BEBEBE"/>
<path d="M67.0234 72.4034H67.7191L68.4613 74.4443L69.2034 72.4034H69.8991L68.7395 75.3256H68.183L67.0234 72.4034Z" fill="#BEBEBE"/>
<path d="M70.734 72.4034H72.914V72.96H71.3834V73.563H72.7285V74.1196H71.3834V74.7226H72.9604V75.2792H70.734V72.4034V72.4034Z" fill="#BEBEBE"/>
<path d="M76.4391 72.3567H77.0421L78.2944 75.2788H77.6451L77.3668 74.6295H76.1608L75.8825 75.2788H75.2332L76.4391 72.3567ZM77.0885 74.0729L76.7174 73.1452L76.3464 74.0729H77.0885V74.0729ZM79.0366 72.4031H79.6859V74.7222H81.1238V75.2788H79.0366V72.4031ZM81.6804 73.8409C81.6804 73.006 82.2834 72.3567 83.211 72.3567C83.7676 72.3567 84.0923 72.5422 84.3706 72.8205L83.9532 73.2843C83.7212 73.0988 83.4893 72.9597 83.211 72.9597C82.7008 72.9597 82.3761 73.3771 82.3761 73.8409C82.3761 74.3512 82.7008 74.7686 83.211 74.7686C83.5357 74.7686 83.7212 74.6295 83.9532 74.4439L84.3706 74.8614C84.0923 75.186 83.7212 75.3716 83.1646 75.3716C82.3298 75.3252 81.6804 74.6758 81.6804 73.8409V73.8409Z" fill="#BEBEBE"/>
<path d="M85.1591 74.0267V72.3569H85.8085V73.9803C85.8085 74.4442 86.0404 74.6761 86.4115 74.6761C86.7825 74.6761 87.0144 74.4442 87.0144 73.9803V72.3105H87.6638V73.934C87.6638 74.8152 87.1536 75.2327 86.4115 75.2327C85.6229 75.3254 85.1591 74.908 85.1591 74.0267V74.0267Z" fill="#BEBEBE"/>
<path d="M88.6843 72.4034H89.2872L90.6323 74.166V72.4034H91.2817V75.2792H90.7251L89.3336 73.4239V75.2792H88.6843V72.4034Z" fill="#BEBEBE"/>
<path d="M93.8792 72.4034H96.1055V72.96H94.5285V73.563H95.92V74.1196H94.5285V75.2328H93.8792V72.4034ZM96.9868 72.4034H97.6362V75.2792H96.9868V72.4034Z" fill="#BEBEBE"/>
<path d="M98.7029 72.4034H99.3059L100.651 74.166V72.4034H101.3V75.2792H100.744L99.3523 73.4239V75.2792H98.7029V72.4034Z" fill="#BEBEBE"/>
<path d="M103.295 72.3567H103.898L105.15 75.2788H104.501L104.223 74.6295H102.97L102.692 75.2788H102.043L103.295 72.3567ZM103.991 74.0729L103.62 73.1452L103.249 74.0729H103.991V74.0729Z" fill="#BEBEBE"/>
<path d="M105.939 72.4034H106.542L107.887 74.166V72.4034H108.536V75.2792H107.98L106.588 73.4239V75.2792H105.939V72.4034Z" fill="#BEBEBE"/>
<path d="M109.464 74.815L111.041 72.9597H109.51V72.4031H111.876V72.8669L110.299 74.7222H111.876V75.2788H109.464V74.815ZM112.85 72.4031H113.499V75.2788H112.85V72.4031ZM115.586 72.3567H116.189L117.442 75.2788H116.792L116.514 74.6295H115.308L115.03 75.2788H114.38L115.586 72.3567ZM116.236 74.0729L115.865 73.1452L115.494 74.0729H116.236V74.0729ZM118.184 72.4031H118.88L119.622 73.609L120.364 72.4031H121.06V75.2788H120.41V73.3771L119.575 74.6295L118.787 73.4235V75.2788H118.184V72.4031V72.4031Z" fill="#BEBEBE"/>
<path d="M122.126 72.4034H124.306V72.96H122.776V73.563H124.121V74.1196H122.776V74.7226H124.353V75.2792H122.126V72.4034V72.4034Z" fill="#BEBEBE"/>
<path d="M125.28 72.4034H125.883L127.228 74.166V72.4034H127.878V75.2792H127.321L125.93 73.4239V75.2792H125.28V72.4034Z" fill="#BEBEBE"/>
<path d="M129.548 72.9597H128.666V72.3567H131.078V72.9597H130.197V75.2788H129.548V72.9597V72.9597Z" fill="#BEBEBE"/>
<path d="M131.681 73.8409C131.681 73.006 132.331 72.3567 133.212 72.3567C134.093 72.3567 134.743 73.006 134.743 73.8409C134.743 74.6758 134.093 75.3252 133.212 75.3252C132.284 75.3252 131.681 74.6758 131.681 73.8409ZM134.093 73.8409C134.093 73.3307 133.722 72.9133 133.212 72.9133C132.702 72.9133 132.331 73.3307 132.331 73.7946C132.331 74.3048 132.702 74.7222 133.212 74.7222C133.722 74.7222 134.093 74.3512 134.093 73.8409Z" fill="#BEBEBE"/>
<path d="M137.247 72.4034H138.407C139.103 72.4034 139.52 72.8209 139.52 73.4239C139.52 74.0732 139.01 74.4443 138.36 74.4443H137.897V75.3256H137.247V72.4034V72.4034ZM138.407 73.8413C138.732 73.8413 138.917 73.6558 138.917 73.4239C138.917 73.1456 138.732 73.0064 138.407 73.0064H137.897V73.8877L138.407 73.8413Z" fill="#BEBEBE"/>
<path d="M140.308 74.0267V72.3569H140.958V73.9803C140.958 74.4442 141.19 74.6761 141.561 74.6761C141.932 74.6761 142.164 74.4442 142.164 73.9803V72.3105H142.813V73.934C142.813 74.8152 142.303 75.2327 141.561 75.2327C140.772 75.3254 140.308 74.908 140.308 74.0267V74.0267Z" fill="#BEBEBE"/>
<path d="M143.834 72.4034H145.179C145.503 72.4034 145.782 72.4962 145.921 72.6817C146.06 72.8209 146.106 72.96 146.106 73.192C146.106 73.5166 145.921 73.7022 145.735 73.7949C146.06 73.9341 146.292 74.1196 146.292 74.4907C146.292 75.0009 145.874 75.2792 145.225 75.2792H143.834V72.4034V72.4034ZM145.04 73.563C145.318 73.563 145.503 73.4702 145.503 73.2383C145.503 73.0528 145.364 72.96 145.086 72.96H144.437V73.563H145.04V73.563ZM145.225 74.7226C145.503 74.7226 145.689 74.6298 145.689 74.3979C145.689 74.2124 145.55 74.0732 145.225 74.0732H144.483V74.7226H145.225V74.7226Z" fill="#BEBEBE"/>
<path d="M147.173 72.4034H148.518C148.843 72.4034 149.121 72.4962 149.26 72.6817C149.4 72.8209 149.446 72.96 149.446 73.192C149.446 73.5166 149.26 73.7022 149.075 73.7949C149.4 73.9341 149.632 74.1196 149.632 74.4907C149.632 75.0009 149.214 75.2792 148.565 75.2792H147.173V72.4034V72.4034ZM148.379 73.563C148.657 73.563 148.843 73.4702 148.843 73.2383C148.843 73.0528 148.704 72.96 148.426 72.96H147.776V73.563H148.379V73.563ZM148.565 74.7226C148.843 74.7226 149.029 74.6298 149.029 74.3979C149.029 74.2124 148.889 74.0732 148.565 74.0732H147.823V74.7226H148.565V74.7226Z" fill="#BEBEBE"/>
<path d="M150.513 72.4034H151.162V74.7226H152.6V75.2792H150.513V72.4034ZM153.481 72.4034H154.131V75.2792H153.481V72.4034Z" fill="#BEBEBE"/>
<path d="M155.058 73.8409C155.058 73.006 155.661 72.3567 156.589 72.3567C157.146 72.3567 157.47 72.5422 157.749 72.8205L157.331 73.2843C157.099 73.0988 156.867 72.9597 156.589 72.9597C156.079 72.9597 155.754 73.3771 155.754 73.8409C155.754 74.3512 156.079 74.7686 156.589 74.7686C156.914 74.7686 157.099 74.6295 157.331 74.4439L157.749 74.8614C157.47 75.186 157.099 75.3716 156.543 75.3716C155.661 75.3252 155.058 74.6758 155.058 73.8409V73.8409Z" fill="#BEBEBE"/>
<path d="M158.352 73.8409C158.352 73.006 159.001 72.3567 159.882 72.3567C160.763 72.3567 161.413 73.006 161.413 73.8409C161.413 74.6758 160.763 75.3252 159.882 75.3252C159.001 75.3252 158.352 74.6758 158.352 73.8409ZM160.763 73.8409C160.763 73.3307 160.392 72.9133 159.882 72.9133C159.372 72.9133 159.001 73.3307 159.001 73.7946C159.001 74.3048 159.372 74.7222 159.882 74.7222C160.392 74.7222 160.763 74.3512 160.763 73.8409Z" fill="#BEBEBE"/>
<path d="M205.337 61.9209L208.677 61.7818V68.1826C208.677 68.3681 208.723 68.5073 208.863 68.6001C208.955 68.6928 209.141 68.7392 209.373 68.7392H209.883V69.4813H205.337V68.7392H205.848C206.126 68.7392 206.312 68.6928 206.404 68.5537C206.497 68.4145 206.59 68.229 206.59 67.9043V63.5443C206.59 63.266 206.497 63.0341 206.358 62.895C206.219 62.7558 205.987 62.663 205.709 62.663H205.384L205.337 61.9209ZM207.378 57.5609C207.749 57.5609 208.028 57.7001 208.306 57.932C208.584 58.2103 208.677 58.4886 208.677 58.8596C208.677 59.2307 208.538 59.5554 208.306 59.7873C208.028 60.0656 207.749 60.1584 207.378 60.1584C207.007 60.1584 206.683 60.0192 206.451 59.7873C206.172 59.509 206.08 59.2307 206.08 58.8596C206.08 58.4886 206.219 58.1639 206.451 57.932C206.729 57.6537 207.054 57.5609 207.378 57.5609" fill="#221F20"/>
<path d="M203.436 67.0695C203.807 67.0695 204.085 67.2086 204.363 67.4405C204.642 67.7188 204.734 67.9971 204.734 68.3682C204.734 68.7392 204.595 69.0639 204.363 69.2958C204.085 69.5741 203.807 69.6669 203.436 69.6669C203.065 69.6669 202.74 69.5278 202.508 69.2958C202.23 69.0175 202.137 68.7392 202.137 68.3682C202.137 67.9971 202.276 67.6724 202.508 67.4405C202.74 67.2086 203.065 67.0695 203.436 67.0695Z" fill="#8E0000"/>
<path d="M212.249 58.8594H212.944V61.9207H215.403V62.802H212.944V67.5794C212.944 67.9041 213.037 68.136 213.176 68.3215C213.315 68.5071 213.547 68.5998 213.826 68.5998C214.568 68.5998 214.985 67.9041 215.032 66.5126H215.727C215.727 67.2547 215.588 67.8577 215.356 68.3215C215.124 68.7854 214.846 69.1101 214.429 69.3884C214.011 69.6203 213.547 69.7594 213.037 69.7594C212.573 69.7594 212.202 69.6666 211.877 69.4811C211.553 69.2956 211.274 69.0173 211.089 68.6462C210.905 68.2876 210.809 67.8899 210.811 67.4866V62.8947H209.466V62.0135C210.3 62.0135 210.903 61.7352 211.367 61.2249C211.831 60.622 212.109 59.8798 212.249 58.8594M75.0013 3.24622H106.449L106.82 15.5377H104.64C104.269 11.7343 103.388 9.13685 101.996 7.6526C100.605 6.21473 98.4711 5.4726 95.5953 5.4726H90.3077C89.5192 5.4726 88.9626 5.61175 88.6379 5.93643C88.2668 6.26111 88.1277 6.72494 88.1277 7.32792V19.2483H90.0294C93.8792 19.2483 96.0592 16.9756 96.6621 12.3837H98.7958V28.8496H96.6621C96.6157 27.0871 96.2911 25.6956 95.7809 24.6752C95.2706 23.6547 94.5749 22.8662 93.6472 22.2632C92.7196 21.6603 91.6992 21.382 90.4932 21.382H88.0813V34.3692C88.0813 35.0649 88.2668 35.5752 88.6379 35.8998C89.1481 36.3637 89.7975 36.5956 90.5396 36.5956H93.9255V38.822H75.0477V36.642H78.2017C78.9438 36.642 79.5004 36.4564 79.9179 36.039C80.3353 35.6679 80.5209 35.1577 80.5209 34.5547V7.32792C80.5209 6.63217 80.3353 6.16834 79.9179 5.89005C79.5468 5.61175 78.7119 5.4726 77.506 5.4726H75.0477L75.0013 3.24622V3.24622Z" fill="#221F20"/>
<path d="M119.297 35.8071L120.132 37.2914C119.297 37.848 118.555 38.2654 117.906 38.4509C117.256 38.6829 116.514 38.7756 115.726 38.7756C114.566 38.7756 113.638 38.5437 112.896 38.0335C112.2 37.5233 111.505 36.5956 110.948 35.2505C109.557 36.5956 108.351 37.5697 107.237 38.0335C106.124 38.5437 104.918 38.7756 103.527 38.7756C101.625 38.7756 100.141 38.3582 99.0741 37.4769C98.0073 36.5956 97.4507 35.4824 97.4507 34.1373C97.4507 32.0965 98.4247 30.4731 100.419 29.2207C101.996 28.2467 105.475 27.2726 110.809 26.2986V23.562C110.809 22.4952 110.438 21.6139 109.742 20.9182C109.046 20.2224 108.072 19.8978 106.866 19.8978C105.939 19.8978 105.15 20.0833 104.455 20.5007C103.991 20.779 103.759 21.0109 103.759 21.2892C103.759 21.4284 103.852 21.6139 104.037 21.8922C104.408 22.4952 104.594 23.0982 104.594 23.7012C104.594 24.4433 104.362 25.0463 103.852 25.5565C103.341 26.0203 102.692 26.2522 101.857 26.2522C100.976 26.2522 100.234 26.0203 99.7234 25.5101C99.1669 24.9999 98.9349 24.3505 98.9349 23.562C98.9349 22.2633 99.6307 21.1037 101.069 20.0833C102.831 18.8309 105.057 18.228 107.701 18.228C109.696 18.228 111.458 18.5526 112.989 19.1556C113.963 19.5267 114.798 20.2224 115.401 21.1965C116.004 22.1705 116.329 23.3765 116.329 24.8143V34.462C116.329 35.2041 116.468 35.7143 116.746 36.039C117.024 36.3637 117.395 36.5029 117.859 36.5029C118.184 36.4565 118.694 36.2246 119.297 35.8071M110.855 28.0612C107.98 28.4322 105.985 29.0352 104.965 29.8701C103.944 30.705 103.434 31.7718 103.434 33.1169C103.434 34.0446 103.666 34.7867 104.176 35.2969C104.64 35.8071 105.336 36.039 106.217 36.039C107.562 36.039 108.675 35.5752 109.557 34.6012C110.438 33.6271 110.902 32.3284 110.902 30.6586V28.0612H110.855V28.0612ZM135.902 11.3633H137.711V19.1556H143.973V21.3356H137.711V33.3952C137.711 34.1837 137.897 34.8331 138.314 35.2505C138.732 35.668 139.242 35.8999 139.937 35.8999C141.839 35.8999 142.86 34.1373 142.952 30.6122H144.761C144.715 32.5139 144.437 33.9982 143.88 35.1578C143.323 36.3173 142.535 37.1986 141.515 37.8016C140.494 38.4046 139.335 38.7292 138.036 38.7292C136.923 38.7292 135.902 38.4973 135.067 38.0335C134.232 37.5697 133.583 36.8739 133.073 35.9926C132.563 35.065 132.331 34.0909 132.331 33.0241V21.3356H128.945V19.1556C130.986 19.1556 132.609 18.4135 133.769 17.1148C134.928 15.816 135.624 13.9143 135.902 11.3633Z" fill="#221F20"/>
<path d="M122.915 11.3631H124.724V19.1554H130.986V21.3354H124.724V33.395C124.724 34.1835 124.909 34.8329 125.327 35.2503C125.744 35.6678 126.254 35.8997 126.95 35.8997C128.852 35.8997 129.872 34.1371 129.965 30.612H131.774C131.728 32.5137 131.449 33.998 130.893 35.1576C130.336 36.3171 129.548 37.1984 128.527 37.8014C127.507 38.4044 126.347 38.729 125.049 38.729C123.935 38.729 122.915 38.4971 122.08 38.0333C121.245 37.5695 120.596 36.8737 120.086 35.9924C119.575 35.0648 119.343 34.0907 119.343 33.0239V21.3354H115.957V19.1554C117.998 19.1554 119.622 18.4133 120.781 17.1146C121.894 15.8159 122.637 13.9142 122.915 11.3631ZM153.296 18.135C155.429 18.135 157.377 18.5988 159.14 19.5265C160.903 20.4542 162.248 21.6601 163.129 23.1444C164.01 24.6286 164.428 26.3912 164.428 28.4784C164.428 31.818 163.314 34.369 161.042 36.1316C158.769 37.8942 156.218 38.8218 153.342 38.8218C151.301 38.8218 149.446 38.358 147.776 37.4303C146.106 36.5027 144.808 35.2967 143.88 33.7197C142.999 32.189 142.535 30.4265 142.535 28.4784C142.535 25.5563 143.555 23.098 145.596 21.1035C147.637 19.109 150.234 18.135 153.296 18.135M153.435 20.0831C152.043 20.0831 150.93 20.6861 150.095 21.9384C149.26 23.1907 148.843 25.3707 148.843 28.4784C148.843 31.7252 149.26 33.9516 150.095 35.1576C150.93 36.3635 152.043 37.0129 153.435 37.0129C154.873 37.0129 156.032 36.3635 156.914 35.1112C157.795 33.8588 158.212 31.6788 158.212 28.6176C158.212 25.4635 157.795 23.2371 156.914 21.9848C156.032 20.6861 154.873 20.0831 153.435 20.0831M33.4885 19.8976L41.9302 19.5265V35.6678C41.9302 36.0852 42.0694 36.4563 42.3477 36.6882C42.626 36.9201 43.0434 37.0593 43.6 37.0593H44.8987V38.961H33.4885V37.0593H34.7409C35.4366 37.0593 35.9004 36.9201 36.1787 36.5954C36.457 36.2707 36.5962 35.7605 36.5962 34.972V23.9793C36.5962 23.2835 36.4107 22.7733 35.9932 22.3559C35.5758 21.9848 35.0192 21.7993 34.3234 21.7993H33.4885V19.8976V19.8976ZM38.6834 8.95117C39.6111 8.95117 40.3532 9.27585 41.0026 9.92521C41.318 10.232 41.5671 10.6002 41.7347 11.0071C41.9022 11.4139 41.9845 11.8508 41.9766 12.2907C41.9845 12.7307 41.9022 13.1676 41.7347 13.5744C41.5671 13.9813 41.318 14.3495 41.0026 14.6563C40.3532 15.3056 39.5647 15.6303 38.6834 15.6303C38.2435 15.6383 37.8066 15.5559 37.3997 15.3884C36.9929 15.2209 36.6247 14.9717 36.3179 14.6563C35.6685 14.0069 35.3438 13.2184 35.3438 12.3371C35.3359 11.8972 35.4182 11.4603 35.5858 11.0534C35.7533 10.6466 36.0025 10.2784 36.3179 9.9716C36.9673 9.27585 37.7558 8.95117 38.6834 8.95117" fill="#221F20"/>
<path d="M44.4349 8.85836L53.3405 8.39453V35.3894C53.3405 35.8533 53.4796 36.2707 53.8043 36.549C54.129 36.8273 54.5464 36.9664 55.1494 36.9664H56.3554V38.8682H44.8988V36.9664H46.1975C46.8005 36.9664 47.2179 36.7809 47.5426 36.5026C47.8209 36.1779 47.96 35.7141 47.96 35.0647V12.8473C47.96 12.1516 47.7745 11.6413 47.4034 11.2703C47.0324 10.8992 46.5222 10.7137 45.8728 10.7137H44.4349V8.85836V8.85836Z" fill="#221F20"/>
<path d="M53.3868 13.7291C52.8766 13.5436 52.2272 13.7755 51.4851 14.564C50.743 15.3061 50.14 16.3265 49.6298 17.5789C49.1196 18.8776 48.8876 20.0372 48.934 21.0576C48.934 22.1244 49.2587 22.7274 49.7689 22.9593C49.8617 23.0057 49.9544 23.0057 50.0472 23.0057C50.511 23.0521 51.0213 22.7738 51.6242 22.1244C52.32 21.3823 52.923 20.3619 53.4332 19.1095C53.9434 17.8572 54.1753 16.6976 54.1753 15.6308C54.1753 14.8887 54.0361 14.3321 53.7579 14.0074C53.6651 13.8682 53.5259 13.7755 53.3868 13.7291M67.0698 21.3823C67.0698 21.3823 65.1217 18.5065 65.5391 18.1355C66.003 17.7644 66.4204 16.6048 67.8583 17.0687C67.8583 17.0687 69.3425 16.3729 69.9919 16.6976L71.4762 17.0223L73.1459 18.2282L74.9085 19.7589C74.9085 19.7589 76.0217 19.8516 76.1144 20.2227L76.3464 21.2431C76.3464 21.2431 77.3668 21.5678 77.3204 22.8202C77.3204 22.8202 78.0625 24.3508 75.0476 26.9019L73.7489 27.9223L74.12 28.2006L76.1608 29.221L77.1813 29.4993L78.6655 33.3491H79.2221L80.057 35.3436V36.0857L80.6136 38.8687L76.1144 44.5738V45.2695L81.4485 49.8151L81.6804 50.1397C81.6804 50.1397 73.9344 55.3346 70.2238 55.1027L64.3332 49.5368L59.7876 43.507L68.3685 38.0338L65.1217 33.3491L64.8898 34.5551L62.6634 35.5755L61.5966 34.6014L59.834 35.5755L57.8396 35.158L56.2161 30.6589L55.9378 27.9223L55.3349 25.6495L55.1493 25.1857L55.6132 24.5827L56.6336 24.4899L57.5149 24.6291L57.9323 24.7682L58.4425 24.5827L58.9527 25.1857L58.6744 26.067L59.5557 25.9742V26.9019L59.0455 27.644L58.257 27.7831L60.2979 31.8185L60.5298 30.1023L63.3127 29.1746L64.5187 28.9427L66.4204 28.4789L66.6987 29.0819L67.7655 27.7368L68.3685 27.5512V27.2729L66.5596 26.9019L66.1885 25.9278L67.5336 23.3768L66.4668 23.0521L67.0698 21.3823V21.3823Z" fill="white"/>
<path d="M60.1587 31.0762C60.1123 31.0762 60.1123 31.0762 60.1587 31.0762C60.1123 31.1226 60.1123 31.1226 60.1587 31.0762ZM67.2553 27.9222C67.2089 27.9222 67.2553 27.9222 67.2553 27.9222ZM57.4685 24.5362H57.4221H57.4685ZM76.903 37.7554L76.8566 37.6626C76.8102 37.6626 76.7638 37.709 76.7174 37.709H76.6711C76.6247 37.709 76.6247 37.709 76.5783 37.7554H76.3928C76.3464 37.709 76.3 37.709 76.2536 37.709C76.2072 37.6626 76.1608 37.6626 76.0681 37.6626C76.0217 37.6162 75.9753 37.5698 75.8825 37.5234C75.8825 37.5698 75.8825 37.6626 75.9289 37.7554V38.5439C75.9289 38.7294 75.9753 38.9613 76.0217 39.1468C76.0217 39.286 76.0217 39.3788 76.0681 39.5179C76.1145 39.6571 76.1145 39.7498 76.1145 39.8426C76.1608 39.9354 76.1608 40.0281 76.1608 40.1673C76.2072 40.0745 76.2536 39.9817 76.2536 39.889C76.3 39.7962 76.3464 39.7034 76.3464 39.5643C76.3928 39.4715 76.3928 39.3788 76.4391 39.3324C76.4391 39.286 76.4855 39.2396 76.4855 39.1932C76.5783 38.9613 76.6247 38.7294 76.6711 38.5439L76.7174 38.4975C76.7638 38.4511 76.7638 38.4047 76.7638 38.3583C76.7638 38.312 76.8102 38.2656 76.8566 38.1728C76.8566 38.1264 76.8566 38.1264 76.903 38.08C76.903 38.0337 76.9493 38.0337 76.9493 37.9873V37.9409L76.9957 37.8945L76.9493 37.8481C76.9493 37.8017 76.9494 37.8017 76.903 37.7554M69.7136 22.0779C69.6672 22.0315 69.4817 21.9388 69.157 21.846C69.0642 21.7996 68.9715 21.7532 68.9715 21.7068H68.9251C68.8323 21.7068 68.7396 21.6605 68.6932 21.6605C68.6932 21.6605 68.6468 21.7068 68.6468 21.7532C68.6004 21.7532 68.554 21.846 68.4613 21.9851L68.3685 22.2171C68.3685 22.2634 68.3685 22.3098 68.4149 22.3098L68.5076 22.4026C68.6004 22.4954 68.6932 22.5417 68.8323 22.5417C68.8787 22.5417 68.9251 22.5417 69.0642 22.4954C69.2034 22.4954 69.2962 22.449 69.3889 22.449C69.3889 22.4026 69.2498 22.3562 69.1106 22.3098C68.9251 22.2634 68.8323 22.2171 68.7859 22.1707H68.7396C68.7396 22.1243 68.7859 22.1243 68.7859 22.1243C68.8323 22.1243 68.8787 22.1707 68.9251 22.1707C69.1106 22.1707 69.2034 22.1707 69.2962 22.1243C69.2962 22.1243 69.3425 22.1243 69.3425 22.1707L70.0383 22.449H70.0847L69.7136 22.0779M69.8991 19.5268C71.3834 20.5473 72.6357 21.6605 73.7025 22.8664C74.0272 23.1911 74.2591 23.5622 74.3983 23.9332C74.5838 24.3971 74.6766 24.8609 74.6302 25.3711C74.5838 25.6494 74.5374 25.9741 74.4447 26.2988C74.3983 26.4843 74.3055 26.6234 74.2591 26.809V26.8554C74.3055 26.809 74.3983 26.7626 74.4447 26.7162C75.3723 25.4175 75.1404 23.9796 73.7489 22.3562C73.7025 22.3098 73.7025 22.2634 73.6562 22.2171L73.0996 21.6605V21.6141C71.8008 20.269 70.363 19.063 68.8323 17.9962C68.1366 17.5788 67.4872 17.3932 66.9306 17.5324C66.6933 17.6329 66.4857 17.7926 66.3276 17.9962C66.0957 18.46 66.0957 18.8311 66.3276 19.2022H66.374L67.2553 20.872C67.3945 19.9443 67.6728 19.3877 68.1366 19.1094C68.5076 18.8311 69.157 18.9703 69.8991 19.5268M67.5336 23.0056C67.4408 23.0056 67.3945 23.052 67.3945 23.0983C67.3945 23.0983 67.3945 23.1447 67.4408 23.1911C67.4872 23.2375 67.5336 23.2375 67.5336 23.2375C67.6264 23.2375 67.6728 23.1911 67.6728 23.052C67.6728 23.0056 67.6264 23.0056 67.5336 23.0056M67.5336 22.1707L67.58 22.1243V21.9851C67.58 21.9388 67.58 21.8924 67.4872 21.8924C67.4408 21.846 67.3945 21.846 67.3017 21.846C67.2553 21.846 67.2089 21.8924 67.1625 21.8924C67.1625 21.8924 67.1162 21.9388 67.1162 21.9851C67.1162 22.0315 67.0698 22.0779 67.0698 22.1243C67.1162 22.1243 67.1162 22.1243 67.1162 22.1707V22.2634H67.3017C67.2553 22.3098 67.2553 22.3562 67.2553 22.3562C67.2553 22.3562 67.2553 22.4026 67.3017 22.4026C67.3714 22.391 67.4361 22.3587 67.4872 22.3098C67.5336 22.2171 67.5336 22.1707 67.5336 22.1707M70.734 21.2894C70.6413 21.1966 70.5485 21.1503 70.4557 21.1039C70.2702 21.0575 70.0383 21.0111 69.7136 20.9647C69.0179 20.872 68.6932 20.9183 68.6932 21.1503V21.1966C68.7396 21.1966 68.7396 21.243 68.7859 21.243C68.8323 21.243 68.8323 21.2894 68.8787 21.2894H69.0642C69.1106 21.243 69.157 21.1966 69.2498 21.1966H70.0847C70.1311 21.1966 70.1311 21.1966 70.1774 21.243H70.2702C70.4094 21.2894 70.5021 21.3358 70.5485 21.3358H70.734V21.2894" fill="#221F20"/>
<path d="M53.1549 14.425C52.6911 14.2395 52.1809 14.4714 51.5315 15.1207C50.9285 15.7701 50.3719 16.6514 49.9545 17.7182C49.537 18.8314 49.3051 19.8054 49.3515 20.6867C49.3515 21.6144 49.6298 22.1246 50.0472 22.3101C50.1185 22.3476 50.199 22.3637 50.2792 22.3565C50.6966 22.4029 51.114 22.1246 51.6706 21.6144C52.2736 20.965 52.7838 20.0837 53.2013 19.0169C53.6187 17.9037 53.8506 16.9297 53.8506 16.0484C53.8506 15.399 53.7115 14.9352 53.4796 14.6569C53.3829 14.5646 53.2736 14.4865 53.1549 14.425" fill="#8E0000"/>
<path d="M67.4872 21.6607C67.5336 21.6607 67.5336 21.6607 67.5336 21.6144C67.5336 21.568 67.5336 21.5216 67.4408 21.4752C67.3897 21.4264 67.3251 21.3941 67.2553 21.3824V21.568L67.3481 21.6607C67.3945 21.6144 67.3945 21.6607 67.4872 21.6607ZM73.7489 24.1654C73.7025 24.2118 73.6098 24.2118 73.517 24.2582C73.3315 24.351 73.2387 24.351 73.1923 24.351V24.3973C73.1923 24.4901 73.1923 24.5365 73.2851 24.5365C73.3315 24.5365 73.3779 24.4901 73.4706 24.4901C73.517 24.4437 73.6098 24.4437 73.6098 24.4437C73.7489 24.4437 73.8417 24.5365 73.9345 24.6756C73.9808 24.7684 73.9808 24.8612 73.9808 24.9539C73.9808 25.0467 73.9345 25.1395 73.8417 25.2322C73.7489 25.325 73.7025 25.3714 73.7025 25.4178C73.7025 25.4641 73.7025 25.4641 73.7489 25.4641C73.8417 25.4178 73.8881 25.4178 73.9345 25.3714V25.4178C74.0272 25.3714 74.12 25.2322 74.1664 25.0931C74.1664 25.0003 74.2128 24.9539 74.2128 24.8612V24.6756C74.2128 24.5829 74.2128 24.4437 74.12 24.351C74.0736 24.2582 73.9345 24.1654 73.7489 24.1654M73.1459 24.7684H73.0532C73.0532 24.8148 73.0068 24.8148 73.0068 24.8148L72.9604 24.8612V24.9076C72.9604 24.9076 73.0068 24.9539 73.0068 25.0003C73.0532 25.0467 73.0996 25.0931 73.0996 25.1395C73.146 25.1395 73.1459 25.1859 73.1459 25.2322V25.2786C73.1923 25.4178 73.2387 25.5105 73.2851 25.6033C73.3779 25.6033 73.4706 25.4641 73.4706 25.1859C73.4242 24.9076 73.2851 24.7684 73.1459 24.7684" fill="#221F20"/>
<path d="M72.4038 26.1137C72.4502 26.0673 72.4038 26.0673 72.4038 26.1137C72.1719 26.0673 72.0328 26.021 71.9864 25.9746C71.94 25.9282 71.8936 25.8354 71.8936 25.7427C71.8472 25.6963 71.8472 25.6499 71.8472 25.6035V25.5107C71.8009 25.5107 71.6617 25.6035 71.5226 25.8354C71.3834 26.0673 71.2906 26.2065 71.2906 26.3456C71.2906 26.4848 71.3834 26.5776 71.569 26.5776C71.7545 26.5776 71.94 26.5312 72.2183 26.4848C72.4966 26.392 72.6821 26.3456 72.7749 26.2529C72.7285 26.2529 72.6358 26.2529 72.5894 26.2065L72.4038 26.1137Z" fill="#221F20"/>
<path d="M75.9754 24.8616C76.1609 24.8616 76.2537 24.8152 76.3464 24.7688C76.3953 24.7177 76.4276 24.653 76.4392 24.5833C76.4392 24.5369 76.3928 24.4905 76.3928 24.4441C76.3464 24.3977 76.2537 24.3977 76.1609 24.4441V24.2122C76.1609 24.2122 76.1145 24.0267 76.0681 23.9803C75.8826 23.7947 75.7434 23.9339 75.7434 24.305C75.7434 24.676 75.8362 24.8616 75.9754 24.8616M69.2962 17.765L69.4354 17.9041C69.4817 17.9505 69.5745 17.9969 69.6673 18.0433L71.1051 19.1101L71.6154 19.5739C71.8473 19.7594 71.9864 19.945 72.1256 19.9913C72.3111 20.1305 72.4966 20.316 72.6358 20.4552C72.6822 20.5479 72.7749 20.6871 72.9141 20.8726C72.9605 21.0118 73.0069 21.1045 73.0996 21.2437C73.146 21.3365 73.2388 21.3828 73.2851 21.4292V21.4756L73.8417 22.0322C73.8881 22.0786 73.8881 22.125 73.9345 22.1713L74.0273 22.2641C74.2128 22.3569 74.3983 22.496 74.5839 22.6352C74.9549 22.8671 75.1405 23.2382 75.1405 23.7484C75.1869 24.2122 75.2332 24.3977 75.3724 24.3977C75.4651 24.3977 75.5579 24.0267 75.5115 23.2382C75.5115 22.9599 75.4188 22.6816 75.2332 22.4496C75.0941 22.2641 74.7694 21.9858 74.2128 21.6611C73.9345 21.4756 73.7026 21.1973 73.4707 20.8726C73.1924 20.5016 73.0069 20.2233 72.8213 20.0841L70.966 18.5071C70.1775 17.9041 69.389 17.4403 68.6932 17.1156C68.6932 17.1156 68.6468 17.1156 68.6468 17.2084C68.6932 17.3011 68.8788 17.4867 69.2962 17.765M69.389 43.0901L68.0439 43.9713C69.9456 46.5688 72.3111 49.0271 75.0941 51.2535C75.1405 51.2071 75.2332 51.1607 75.2796 51.1143C75.6507 50.8824 76.0217 50.6041 76.4392 50.3722C73.6562 48.1458 71.3371 45.6875 69.389 43.0901M58.1643 25.8356C58.1643 25.8356 58.2107 25.8356 58.2571 25.882V25.6965C58.2571 25.279 58.1643 25.0007 58.0251 24.8616C58.1643 25.1399 58.2107 25.4645 58.1643 25.8356M69.0643 38.8228L61.1328 43.8322L62.0605 45.2237L69.992 40.2143L69.0643 38.8228ZM70.363 40.9101L62.6171 45.9194L62.8954 46.3369L70.6413 41.3275L70.363 40.9101ZM64.426 46.1977L63.2664 46.9399C65.3073 49.4445 67.7192 51.8564 70.5486 54.1292C70.8732 53.8973 71.1979 53.7118 71.4762 53.5262C68.6932 51.2535 66.3277 48.7952 64.426 46.1977ZM67.6264 44.2496C67.209 44.4816 66.8379 44.7599 66.3741 45.0382C68.2758 47.6356 70.6413 50.0475 73.4243 52.3203C73.5171 52.2739 73.5634 52.2275 73.6562 52.1811C74.0273 51.9492 74.352 51.7637 74.6766 51.5318C71.94 49.3054 69.5745 46.8471 67.6264 44.2496Z" fill="#221F20"/>
<path d="M81.8196 49.6299C81.7732 49.5372 81.7268 49.4444 81.6341 49.398C80.1046 48.2843 78.6339 47.0923 77.2277 45.8265C77.1813 45.7802 77.1349 45.7338 77.0885 45.7338L76.9494 45.5946C76.903 45.5482 76.8566 45.5482 76.8102 45.5019C76.7638 45.4555 76.7175 45.4555 76.7175 45.4091C76.6711 45.3627 76.6247 45.3627 76.5783 45.3163C76.5319 45.2699 76.4856 45.2236 76.4392 45.2236L76.3 45.0844C76.2536 45.038 76.2536 44.9916 76.2073 44.9916C76.2536 44.9453 76.3 44.8989 76.3464 44.8989C76.3928 44.8525 76.4392 44.8061 76.4855 44.8061L76.5319 44.7597C76.5319 44.7133 76.5783 44.7133 76.5783 44.667C76.6247 44.6206 76.6247 44.5742 76.6711 44.5278C76.6711 44.435 76.7175 44.3887 76.7175 44.3423V44.2959C76.7638 44.2495 76.8102 44.2495 76.8102 44.2031L76.903 44.1104C76.9494 44.064 76.9958 44.064 77.0421 44.0176C79.2221 42.1623 80.3817 40.4461 80.5209 38.9155V38.4516L80.057 36.3644V36.2716L80.0107 36.1789V36.0861C80.057 36.0397 80.1034 35.9933 80.1498 35.9006C80.3353 35.5759 80.3817 35.2048 80.2426 34.8338L79.9179 33.7206C79.8251 33.3495 79.6396 33.1176 79.4077 33.0248H79.3613C79.3613 33.0248 79.2685 32.9784 79.2221 32.9784C79.1758 32.9784 79.083 32.9321 79.0366 32.9321C78.9902 32.8857 78.9902 32.7929 78.9438 32.7929C78.8975 32.7465 78.8975 32.7002 78.8511 32.6074C78.8511 32.561 78.8047 32.5146 78.8047 32.4682C78.8047 32.4219 78.8047 32.4219 78.7583 32.3755C78.7583 32.3755 78.7119 32.3291 78.7119 32.2827C78.6655 32.2363 78.6656 32.1899 78.6656 32.1899C78.6656 32.1436 78.6192 32.1436 78.6192 32.1436C78.2017 31.2159 77.6915 30.381 77.1349 29.4997V29.4533C77.0885 29.407 77.0885 29.3606 77.0421 29.3606C76.7175 29.1287 76.3 28.9431 75.8362 28.7112C75.7898 28.6648 75.7434 28.6648 75.697 28.6648C75.6507 28.6184 75.6043 28.6184 75.5115 28.6184C75.4651 28.6184 75.4187 28.5721 75.3724 28.5721C75.326 28.5721 75.2796 28.5721 75.2332 28.5257L75.1868 28.4793C75.1868 28.4793 75.0941 28.4329 75.0477 28.4329C75.0013 28.4329 74.9549 28.3865 74.9085 28.3865H74.723C74.723 28.3865 74.6302 28.3402 74.5838 28.3402V28.1546C74.5838 28.1082 74.5375 28.1082 74.5375 28.1082C74.4911 28.0155 74.4911 27.9691 74.3983 27.9691L74.3519 27.9227V27.8763C74.3519 27.8763 74.3056 27.8299 74.2592 27.8299C74.2128 27.8299 74.1664 27.7836 74.12 27.7372L74.0736 27.6908C74.1664 27.6908 74.2128 27.6908 74.2592 27.6444C74.3056 27.6444 74.3056 27.598 74.3519 27.5516C74.3983 27.5516 74.3983 27.5516 74.3983 27.5053C74.4447 27.4589 74.4911 27.4589 74.5375 27.4125C74.5838 27.3661 74.6302 27.3197 74.6766 27.3197C74.723 27.3197 74.7694 27.2733 74.8158 27.227C74.8621 27.1806 74.8621 27.1342 74.9085 27.0878C75.6043 26.5312 76.2536 25.9282 76.8102 25.2325C76.8102 25.2325 76.8566 25.2325 76.8566 25.1861C77.5987 23.9338 77.5987 22.7742 76.8566 21.661C76.8102 21.661 76.8102 21.6146 76.8102 21.6146C76.7175 21.5219 76.6247 21.3827 76.5319 21.2899C76.3928 20.4087 75.9753 19.9448 75.1868 19.8984C74.2592 19.0636 73.146 18.275 71.94 17.5329C70.8732 16.7908 69.8528 16.5125 68.786 16.6516H68.7396C68.6932 16.6516 68.6932 16.6516 68.6468 16.698H68.5077C68.5077 16.7444 68.5077 16.7444 68.4613 16.7444C68.4149 16.7444 68.3221 16.7444 68.2758 16.7908C68.2294 16.8372 68.1366 16.8372 68.0902 16.8372C68.0438 16.8836 67.9511 16.8836 67.9047 16.9299H67.8583C67.0698 16.7908 66.3741 17.0227 65.7247 17.7184C65.3072 18.2287 65.3536 18.878 65.8638 19.6202L66.7915 21.2899C66.7915 21.3363 66.7451 21.4291 66.7451 21.4755V21.8929C66.7451 21.8929 66.7451 21.9393 66.6987 21.9393C66.6987 21.9857 66.6524 22.0321 66.606 22.0784V22.1248C66.606 22.1712 66.5596 22.2176 66.5596 22.264C66.5596 22.3104 66.5132 22.3567 66.5132 22.4031C66.5132 22.4495 66.4668 22.4959 66.4668 22.5423V22.6814L66.003 22.635L54.2217 13.7295C54.0826 13.5904 53.897 13.4512 53.6651 13.3584C53.0158 13.0802 52.2272 13.3584 51.346 14.2861C50.6038 15.0746 49.9545 16.1414 49.3979 17.5329C48.8877 18.878 48.6094 20.1304 48.6558 21.2436C48.7021 22.5423 49.0268 23.3308 49.769 23.5627C49.9081 23.6091 50.0009 23.6555 50.14 23.6555H50.3719C50.4183 23.6555 50.4647 23.6555 50.5111 23.6091L53.3868 24.0265V24.1657C53.4332 24.1657 53.4332 24.1657 53.4332 24.2121C53.4332 24.2121 53.4796 24.2585 53.4796 24.3048L53.5724 24.3976C53.6187 24.3976 53.6187 24.3976 53.6651 24.444H53.7579C53.8043 24.444 53.8043 24.444 53.8507 24.3976C53.897 24.3976 53.897 24.3976 53.897 24.444C54.0362 25.1397 54.2217 25.6499 54.5928 26.021C54.5928 26.021 54.6392 26.021 54.6392 26.0674C54.7783 26.1602 54.9175 26.2993 55.103 26.3457C55.103 26.3457 55.1494 26.3921 55.1958 26.3921C55.2421 26.3921 55.2421 26.4384 55.2885 26.4384V26.5312C55.2885 26.5312 55.2885 26.624 55.3349 26.6704C55.3349 26.7167 55.3349 26.7631 55.3813 26.8559V26.9023C55.5204 27.4125 55.706 27.8299 55.8915 28.0619C55.8915 28.201 55.9379 28.2938 55.9843 28.4793C55.9843 29.1287 56.1698 30.2882 56.5872 32.0972C56.8192 32.9784 57.0511 33.7206 57.3294 34.3236C57.3294 34.3699 57.3758 34.4163 57.4221 34.4627C57.4685 34.5091 57.4685 34.5555 57.5149 34.6019C57.5149 34.6482 57.5613 34.6946 57.6077 34.7874C57.6541 34.8338 57.7004 34.8802 57.7004 34.9265C57.7468 34.9729 57.7468 35.0193 57.7932 35.0657C57.8396 35.1121 57.8396 35.1585 57.886 35.2048L58.2107 35.5295C58.257 35.5295 58.257 35.5759 58.257 35.5759C58.257 35.5759 58.3034 35.5759 58.3034 35.6223C58.3498 35.6223 58.3498 35.6223 58.3498 35.6687H58.3962L58.489 35.7614H58.5353L58.8136 35.9006H58.86C58.9064 35.9006 58.9064 35.947 58.9528 35.947C58.9992 35.947 58.9992 35.947 59.0455 35.9933H59.4166C59.4166 35.9933 59.5558 35.9933 59.6485 35.947C59.7413 35.947 59.7877 35.9006 59.8341 35.9006C59.8804 35.9006 59.9732 35.9006 60.0196 35.8542C60.066 35.8542 60.1124 35.8078 60.2051 35.8078C60.2515 35.7614 60.2979 35.7614 60.3907 35.7614C60.437 35.715 60.4834 35.715 60.5762 35.715C60.669 35.6687 60.7153 35.6687 60.8081 35.6223C60.8545 35.6223 60.9009 35.5759 60.9472 35.5295C60.9936 35.5295 61.04 35.4831 61.0864 35.4831C61.1328 35.4367 61.1792 35.4367 61.2255 35.3904C61.2719 35.344 61.3183 35.344 61.4111 35.2976C61.4575 35.2976 61.5038 35.2512 61.5502 35.2048H61.5966L61.8749 35.0657C61.9213 35.0657 61.9213 35.1121 61.9213 35.1121L61.9677 35.1585C62.0141 35.2048 62.0604 35.2048 62.1068 35.2512C62.1532 35.2512 62.1996 35.2976 62.2924 35.344C62.4315 35.3904 62.5707 35.4367 62.7098 35.4367C62.8026 35.4367 62.9417 35.4367 62.9881 35.3904C63.0345 35.3904 63.0809 35.3904 63.1273 35.344H63.22L64.3796 34.8802H64.3332C64.5187 34.7874 64.7043 34.741 64.8434 34.6019C64.8898 34.5555 64.9362 34.5091 64.9826 34.4163L65.1217 34.138C65.1217 34.2772 65.1217 34.3699 65.1681 34.4627C65.1681 34.5555 65.2145 34.6482 65.2145 34.6946C65.4928 36.0397 65.7711 37.1993 66.0494 38.127V38.1733C66.0494 38.1733 66.0958 38.2661 66.0958 38.3125C66.0958 38.3589 66.0958 38.3589 66.1421 38.4053V38.4516C66.1421 38.498 66.1885 38.5444 66.1885 38.5908V38.6372C66.2349 38.6836 66.2349 38.7299 66.2349 38.7763C66.2813 38.8227 66.2813 38.8691 66.2813 38.9155C66.2349 38.9619 66.1885 38.9619 66.1421 39.0082C66.0958 39.0546 66.0494 39.0546 66.003 39.101C65.9566 39.101 65.9102 39.1474 65.8638 39.1938H65.8175C65.8175 39.1938 65.7711 39.2402 65.7247 39.2402C65.7247 39.2402 65.6783 39.2402 65.6783 39.2865C65.6319 39.2865 65.6319 39.3329 65.5855 39.3329C65.5855 39.3793 65.5392 39.3793 65.4928 39.4257L65.4464 39.4721C65.4 39.4721 65.3536 39.5185 65.3536 39.5648H65.3073C65.2609 39.6112 65.2145 39.6112 65.1681 39.6576C63.2664 40.9563 61.4111 42.0231 59.6485 42.9044C59.6021 42.9508 59.5094 42.9972 59.463 43.0899C59.4166 43.1363 59.4166 43.2291 59.4166 43.3219C59.4166 43.3682 59.463 43.461 59.5094 43.5538C62.9417 48.5167 66.5132 52.3665 70.1311 55.1495H70.1775C70.2238 55.1959 70.2238 55.1959 70.2702 55.1959C70.3166 55.1959 70.363 55.2423 70.4094 55.1959H70.4558C74.5838 54.4074 78.3409 52.6448 81.6804 49.9546C81.7732 49.9082 81.7732 49.8155 81.8196 49.7227C81.866 49.8155 81.866 49.7227 81.8196 49.6299M53.4332 19.0636C52.923 20.3623 52.32 21.3827 51.5779 22.1248C51.0213 22.7278 50.4647 23.0525 50.0473 23.0061C49.9545 23.0061 49.8617 23.0061 49.769 22.9597C49.2587 22.7278 49.0268 22.1248 49.0268 21.1044C48.9804 20.0376 49.2587 18.878 49.7226 17.5793C50.2328 16.2806 50.8358 15.2602 51.5779 14.518C52.2736 13.7759 52.8766 13.544 53.3868 13.7295C53.526 13.7759 53.6187 13.8223 53.7115 13.9614H53.7579C54.0362 14.2861 54.1753 14.7963 54.1753 15.4921C54.1753 16.6053 53.9434 17.7648 53.4332 19.0636M78.7583 33.3495C79.1294 33.2567 79.3613 33.3959 79.4541 33.767L79.7787 34.8802C79.8715 35.2048 79.8251 35.5295 79.5468 35.7614H79.5004C79.4077 35.8542 79.2685 35.947 79.1294 35.9933L78.6192 36.2253L77.0421 36.9674C76.9494 37.0138 76.8566 37.0602 76.7638 37.0602C76.4392 37.1529 76.2073 37.1065 76.0681 36.921C76.0217 36.8282 75.9753 36.7819 75.929 36.6891L75.5579 35.5759C75.5579 35.5295 75.5579 35.4367 75.5115 35.344C75.5115 35.2512 75.5115 35.1121 75.5579 35.0657C75.6043 35.0193 75.6043 34.9729 75.6507 34.9265C75.6507 34.8802 75.697 34.8802 75.697 34.8338C75.7898 34.6946 75.9753 34.6019 76.2073 34.5091L76.9494 34.1844L78.7583 33.3495V33.3495ZM76.3464 37.7095H76.5319C76.5783 37.6631 76.6247 37.6631 76.6247 37.6631H76.6711C76.7175 37.6631 76.7638 37.6631 76.8102 37.6167L76.8566 37.7095V37.7559C76.8566 37.8023 76.903 37.8023 76.903 37.8023C76.903 37.8023 76.903 37.8487 76.8566 37.8487V37.895C76.8566 37.895 76.8566 37.9414 76.8102 37.9878C76.7638 37.9878 76.7638 38.0342 76.7638 38.0806C76.7175 38.127 76.7175 38.1733 76.6711 38.2661C76.6247 38.3125 76.6247 38.3589 76.6247 38.4053C76.6247 38.4053 76.6247 38.4516 76.5783 38.4516C76.5319 38.6372 76.4392 38.8691 76.3928 39.101C76.3928 39.1474 76.3928 39.1474 76.3464 39.2402C76.3464 39.3329 76.3 39.4257 76.2536 39.4721C76.2072 39.5648 76.2072 39.6576 76.1609 39.7967C76.1145 39.8895 76.1145 39.9823 76.0681 40.075C76.0681 39.9823 76.0681 39.8431 76.0217 39.7504C76.0217 39.6576 75.9753 39.5184 75.9753 39.4257C75.929 39.2865 75.929 39.1938 75.929 39.0546C75.8826 38.8691 75.8826 38.6372 75.8362 38.4516V37.6631C75.8362 37.6631 75.8362 37.524 75.7898 37.4312C75.8362 37.4776 75.929 37.524 75.9753 37.5704C76.0217 37.5704 76.0681 37.6167 76.1609 37.6167M74.5375 30.7985V30.7521C74.5375 30.1491 74.6302 29.4533 74.723 28.7112C74.8158 28.7576 74.9549 28.804 75.0941 28.8504C75.7898 29.0823 76.3464 29.3606 76.7638 29.6389C77.506 30.7985 78.1553 32.0044 78.6656 33.2104L77.877 33.5814L76.2536 34.3236C76.0217 34.4163 75.8362 34.5555 75.697 34.6946H75.6507C75.6507 34.6946 75.6043 34.6482 75.6043 34.6019H75.5579C75.5579 34.6019 75.5115 34.5555 75.4651 34.5555C75.4651 34.5555 75.4187 34.5555 75.4187 34.5091L75.2796 34.3699L74.9085 33.7206C74.8621 33.5814 74.8621 33.4887 74.8158 33.3495V33.3031C74.8158 33.2567 74.7694 33.2104 74.7694 33.164C74.5838 32.6074 74.5375 31.7725 74.5375 30.7985M74.8158 42.7653H74.9085C75.0013 42.7653 75.0941 42.7189 75.1868 42.6725C75.4651 42.3478 75.7434 41.9304 76.0217 41.5129C76.1145 41.281 76.2536 41.0955 76.3464 40.9099V40.9563C76.4392 40.7244 76.5319 40.5389 76.6247 40.307C76.7638 39.9823 76.9494 39.6576 77.1813 39.2402L77.877 37.6167L77.9698 37.524C78.0162 37.524 78.0162 37.4776 78.0162 37.4776C78.2017 37.3385 78.3873 37.2457 78.5264 37.2457H78.5728C78.5728 37.1993 78.6192 37.1993 78.6192 37.1529V37.1065C78.6192 37.0602 78.5728 37.0602 78.5728 37.0602C78.4336 37.0602 78.2481 37.1065 78.0626 37.2457C78.2945 37.0138 78.5264 36.8746 78.6656 36.7819C79.2221 36.5499 79.5468 36.3644 79.7324 36.2716C79.7324 36.318 79.7787 36.3644 79.7787 36.4108L80.2426 38.5444V38.5908C79.686 39.7967 79.3149 40.4925 79.083 40.7708C78.9438 40.9099 78.6192 41.281 78.2017 41.884C78.1553 41.9304 78.109 41.9767 78.0626 42.0695C77.9234 42.255 77.7379 42.4406 77.5987 42.6261L77.3668 42.858C77.3204 42.858 77.3204 42.9044 77.2741 42.9508C77.2741 42.9508 77.2741 42.9972 77.2277 42.9972C76.903 43.2755 76.6247 43.5538 76.3928 43.8321C76.3464 43.7857 76.3 43.6929 76.2536 43.6929H76.2073C76.1609 43.6929 76.1609 43.6929 76.1609 43.7393C76.1145 43.7393 76.1145 43.7857 76.1145 43.7857L76.3 43.9712L76.2073 44.064C76.0681 44.2031 75.7898 44.3423 75.4187 44.4814V44.3887L75.4651 44.3423V44.2959C75.4651 44.2495 75.5115 44.2495 75.5115 44.2495C75.5115 44.2031 75.5579 44.2031 75.5579 44.1567V44.1104C75.5579 44.064 75.5579 44.064 75.5115 44.064H75.4651C75.4651 44.064 75.4187 44.064 75.4187 44.1104C75.4187 44.1567 75.3724 44.2031 75.326 44.2495L75.2796 44.2959H75.326C75.2796 44.3423 75.2332 44.3887 75.1404 44.3887H75.0477C75.0013 44.3887 75.0013 44.3423 75.0013 44.3423C75.0013 44.2959 74.9549 44.2959 74.9549 44.2959C74.9085 44.2959 74.9085 44.3423 74.9085 44.3423V44.5278C74.8621 44.5742 74.8621 44.6206 74.8621 44.667C74.8621 44.7133 74.8158 44.7597 74.7694 44.7597C74.723 44.8061 74.6766 44.8061 74.5838 44.8061C74.5375 44.8061 74.4911 44.7597 74.4447 44.7133C74.4447 44.435 74.5375 44.2031 74.7694 43.9712L75.0941 43.6465C75.0941 43.6465 75.1404 43.6465 75.1404 43.6001C75.1868 43.6001 75.1868 43.5538 75.1868 43.5538V43.5074C75.1868 43.5074 75.1404 43.461 75.0941 43.461H75.0477C75.0013 43.461 75.0013 43.5074 75.0013 43.5074C74.8621 43.6002 74.7694 43.7393 74.6302 43.8321C74.5375 43.9248 74.4911 44.0176 74.4447 44.1567L74.3983 44.2031C74.3983 44.2495 74.3519 44.3423 74.3519 44.3887C74.3056 44.435 74.3055 44.5278 74.3055 44.5742C74.3055 44.6206 74.2592 44.6206 74.2128 44.667H74.0736C74.0272 44.667 74.0272 44.667 73.9345 44.6206L73.8881 44.5742V44.5278C73.8417 44.5278 73.8417 44.4814 73.8417 44.4814C73.8881 44.1567 74.12 43.7857 74.3983 43.4146L74.4447 43.3682C74.4447 43.3219 74.4911 43.3219 74.4911 43.2755V43.2291C74.4911 43.2291 74.4911 43.1827 74.4447 43.1827H74.3983C74.3519 43.1827 74.3519 43.1827 74.3519 43.2291C74.3519 43.2291 74.3519 43.2755 74.3055 43.2755C74.3055 43.2755 74.2592 43.2755 74.2592 43.3219C74.2128 43.4146 74.1664 43.461 74.0736 43.5538V43.6001C73.9345 43.7393 73.8881 43.8784 73.8417 43.9712C73.7953 44.064 73.7026 44.2031 73.7026 44.3423C73.7026 44.3423 73.7026 44.3887 73.6562 44.435H73.4707L73.3315 44.2959C73.3315 44.2495 73.2851 44.2495 73.2851 44.2495L73.517 43.6929C73.5634 43.5074 73.6562 43.3682 73.749 43.2755C73.7953 43.1827 73.8881 43.0899 73.9809 43.0436L74.0273 42.9972C74.0736 42.9972 74.0273 42.9508 74.0273 42.9044C74.0273 42.9044 73.9809 42.9044 73.9809 42.858C73.9345 42.858 73.9345 42.858 73.9345 42.9044C73.8417 42.9972 73.749 43.0436 73.6562 43.1827C73.5634 43.3219 73.4707 43.461 73.3779 43.6465L73.3315 43.8321V43.8784C73.2851 43.9712 73.1924 44.0176 73.146 44.064C73.146 44.064 73.0996 44.064 73.0996 44.0176C73.0996 44.0176 73.0996 43.9712 73.0532 43.9712C73.0532 43.8784 73.0532 43.8321 73.0996 43.6929C73.2387 43.2755 73.4243 42.9972 73.6098 42.7653C73.6562 42.7189 73.6562 42.7189 73.7026 42.7189H73.749C73.7953 42.6725 73.8417 42.6725 73.9345 42.6725H73.9809C74.0736 42.5797 74.4447 42.6261 74.8158 42.7653M66.4668 26.3457C66.4668 26.2529 66.4668 26.2065 66.5132 26.1602C66.606 26.1602 66.7451 26.1138 66.8843 26.1138C66.9307 26.0674 67.0234 26.021 67.1162 26.021C67.4409 25.8355 67.6728 25.5572 67.8583 25.1397V25.0933C67.9047 24.9542 67.9511 24.815 67.9511 24.7223C67.9511 24.6295 67.9975 24.4904 67.9511 24.3976V24.3512C67.9511 24.2584 67.9511 24.1193 67.9047 24.0265C67.8583 23.7482 67.7192 23.5627 67.4873 23.4236C67.4409 23.3772 67.3481 23.3308 67.3017 23.2844C67.2553 23.238 67.209 23.238 67.1626 23.1916L67.1162 23.1453H67.0234C67.0234 23.1916 67.0234 23.238 67.0698 23.238L66.8843 23.1916C66.8843 23.1916 66.8843 23.1453 66.8379 23.0989H66.7451V23.0525C66.6987 22.7278 66.7451 22.4959 66.8843 22.264L67.0234 21.9857C67.0698 21.8929 67.0698 21.7538 67.0698 21.661V21.4755C67.0698 21.3827 67.1162 21.2899 67.1162 21.1972L66.1421 19.3419C65.6783 18.6925 65.6319 18.1823 66.003 17.8112C66.5596 17.2082 67.1626 16.9763 67.8583 17.1155C67.8583 17.1155 67.9047 17.1155 67.9047 17.1619C69.2034 16.6053 70.5485 16.7444 71.8472 17.7184C73.0996 18.4606 74.2128 19.2491 75.1404 20.1304C75.7898 20.1304 76.2073 20.5014 76.3 21.3363C76.3928 21.4755 76.5319 21.6146 76.6247 21.7538C77.2741 22.7278 77.2741 23.7946 76.6247 24.9078C76.0681 25.6036 75.4187 26.2065 74.723 26.7631C74.6766 26.8095 74.6766 26.9023 74.5838 26.9487C74.5838 26.9487 74.5838 26.995 74.5375 26.995C74.3983 27.0878 74.2128 27.1806 74.0736 27.3197C74.12 27.3197 74.12 27.2733 74.12 27.2733V27.227L74.0736 27.1806H74.0273C73.9809 27.227 73.9345 27.3197 73.8881 27.3661L73.6562 27.598C73.6098 27.6444 73.5634 27.6908 73.5634 27.7372H73.2851L73.2387 27.7836C73.2387 27.7836 73.1924 27.7836 73.1924 27.8299H73.146V27.8763C73.146 27.8763 73.146 27.9227 73.1924 27.9227C73.1924 27.9227 73.2387 27.9691 73.2387 27.9227H73.2851L73.3315 27.8763H73.3779C73.4243 27.8299 73.4707 27.8299 73.517 27.8299L73.6562 27.8763C73.7953 27.9691 73.8881 28.0619 74.0273 28.1546C74.0273 28.2474 73.9809 28.3402 73.9345 28.4329C73.749 29.1287 73.3315 29.8244 72.7749 30.5202C72.6358 30.381 72.543 30.1955 72.4966 30.0563C72.4966 30.0099 72.4502 30.0099 72.4502 30.0099C72.4502 29.9636 72.4038 29.9172 72.4038 29.9172C72.4038 29.9172 72.4038 29.8708 72.3575 29.8708C72.3575 29.8244 72.3111 29.778 72.3111 29.778C72.2647 29.6389 72.1719 29.5461 72.0792 29.4997L71.9864 29.407H71.8936V29.4997L71.94 29.5461C71.9864 29.5461 71.9864 29.5461 72.0328 29.5925C72.1157 29.6289 72.1819 29.6951 72.2183 29.778C72.2183 29.778 72.2647 29.8244 72.2647 29.8708C72.3111 29.9172 72.3111 29.9172 72.3111 29.9636C72.1719 30.1027 72.0328 30.2419 71.8472 30.381C71.8009 30.381 71.8009 30.4274 71.8009 30.4274C71.4762 30.7057 71.0124 30.984 70.5485 31.2623C70.5021 31.3087 70.5021 31.3087 70.4558 31.3087C70.4094 31.355 70.3166 31.4014 70.2702 31.4478V31.4942C70.2238 31.4942 70.2238 31.4942 70.2238 31.5406V31.587L69.8528 31.8189H69.76C69.6209 31.9116 69.5281 31.958 69.389 32.0508L69.2498 31.9116V31.8653V31.9116L68.6004 31.2623C68.6004 31.2623 68.5541 31.1695 68.5077 31.1695L68.183 30.7521C68.1366 30.7057 68.1366 30.6593 68.0902 30.6129V30.5665C68.0902 30.5665 68.0438 30.5202 68.0438 30.4738L67.7656 30.0099C67.7656 29.9636 67.7655 29.9172 67.7192 29.9172C67.6728 29.8708 67.6728 29.8708 67.6728 29.8244L67.6264 29.6853C67.6728 29.5925 67.8119 29.5461 67.8119 29.4533C67.9975 29.2214 68.0902 29.1287 68.2758 29.1287C68.1366 29.1287 68.0438 29.1287 67.9511 29.2214L67.7656 29.407C67.7656 29.4533 67.7192 29.4533 67.6728 29.4997C67.6264 29.5925 67.5336 29.6853 67.4873 29.7316H67.3945L67.3017 29.778L67.2553 29.8244C67.3017 29.6389 67.3017 29.4533 67.3481 29.2678C67.4409 28.8504 67.5336 28.5721 67.58 28.3402V28.2938C67.58 28.2474 67.58 28.2474 67.5336 28.2474C67.58 28.0619 67.6728 27.9691 67.7192 27.9227C67.7192 27.9227 67.7655 27.9227 67.8119 27.8763L68.2294 27.7372C68.2758 27.6908 68.3221 27.6908 68.3685 27.6908V28.8967C68.3685 28.9431 68.3685 28.9431 68.4149 28.9431H68.4613V28.9895H68.4149C68.4613 29.0359 68.4613 29.0823 68.4613 29.1287H68.5077C68.5077 29.1287 68.5077 29.175 68.5541 29.2214L68.6004 29.3606C68.6004 29.2678 68.5541 29.2214 68.5541 29.1287V28.9895C68.5077 28.9895 68.5077 28.9431 68.5077 28.9431H68.5541V28.5257C68.5077 28.4793 68.5077 28.4329 68.5077 28.4329V27.598C68.5077 27.4589 68.5541 27.2733 68.5541 27.0878C68.8324 27.0878 69.157 27.0878 69.5281 26.995C69.6209 26.995 69.7136 26.9487 69.8064 26.9487C70.3166 26.8559 70.7341 26.8095 71.1051 26.8559H71.1515C71.1979 26.8559 71.1979 26.8095 71.1979 26.8095C71.1979 26.8095 71.1979 26.7631 71.1515 26.7631L71.1051 26.7167H70.966C70.6413 26.7167 70.2238 26.7631 69.76 26.8095C69.2498 26.9023 68.786 26.995 68.3685 27.1342H67.9975C67.6264 27.1342 67.3017 27.0414 66.977 26.9487C66.6987 26.8095 66.5132 26.6704 66.5132 26.4384L66.4668 26.3457V26.3457ZM69.6209 35.1121C69.6673 35.0657 69.76 35.0193 69.8528 35.0193C69.9456 35.0193 70.0383 35.0657 70.0847 35.1121C70.1311 35.1584 70.1775 35.2512 70.1775 35.344C70.1775 35.4367 70.1311 35.5295 70.0847 35.5759C70.0383 35.6223 69.9456 35.6687 69.8528 35.6687C69.76 35.6687 69.6673 35.6223 69.6209 35.5759C69.5281 35.5295 69.5281 35.4367 69.5281 35.344C69.4817 35.2512 69.5281 35.1584 69.6209 35.1121ZM69.4817 33.4887C69.4353 33.4423 69.389 33.3495 69.389 33.2567C69.389 33.164 69.4353 33.0712 69.4817 33.0248C69.5745 32.9784 69.6209 32.9321 69.7136 32.9321C69.8064 32.9321 69.8992 32.9784 69.9455 33.0248C69.9919 33.0712 70.0383 33.164 70.0383 33.2567C70.0383 33.3495 69.9919 33.4423 69.9455 33.4887C69.8992 33.5814 69.8064 33.5814 69.7136 33.5814C69.6209 33.5814 69.5281 33.535 69.4817 33.4887ZM69.8992 37.1993C69.9455 37.1529 70.0383 37.1065 70.1311 37.1065C70.2238 37.1065 70.3166 37.1529 70.363 37.1993C70.4094 37.2457 70.4558 37.3384 70.4558 37.4312C70.4558 37.524 70.4094 37.6167 70.363 37.6631C70.3166 37.7559 70.2238 37.7559 70.1311 37.7559C70.0383 37.7559 69.9455 37.7095 69.8992 37.6631C69.8528 37.6167 69.8064 37.524 69.8064 37.4312C69.8064 37.3384 69.8528 37.2457 69.8992 37.1993ZM59.3238 25.5108V25.3253C59.3238 25.3253 59.3238 25.2789 59.3702 25.2325C59.3702 25.1861 59.3702 25.1861 59.4166 25.1861C59.4166 25.1397 59.463 25.1397 59.5094 25.1397C59.5558 25.1397 59.6021 25.1397 59.6021 25.0933C59.6485 25.047 59.6949 25.047 59.6949 25.047C59.7413 25.047 59.7413 25.0006 59.7413 24.9542C59.7877 24.9078 59.7877 24.8614 59.8341 24.815L60.1587 24.8614H60.2051L60.9936 25.0006L61.1328 25.047L64.8898 25.6036L65.9102 26.3921C65.9566 26.3921 65.9566 26.4384 66.003 26.4384C66.0494 26.4384 66.0494 26.4848 66.0958 26.4848V26.6704C66.1421 26.7167 66.1421 26.8095 66.1885 26.8559C66.2349 26.9023 66.2813 26.995 66.3741 27.0414V27.0878L66.4204 27.1342C66.4668 27.1806 66.5596 27.227 66.6524 27.2733C66.6524 27.2733 66.6987 27.2733 66.6987 27.3197C66.7451 27.3197 66.7451 27.3197 66.7915 27.3661H66.8379C66.9307 27.4125 67.0234 27.4125 67.1162 27.4589H67.7656L67.4873 27.5516H67.4409C67.4409 27.5516 67.3945 27.5516 67.3945 27.598L67.2553 27.7372C67.2553 27.7372 67.1626 27.8763 67.1626 27.9227H67.2089V27.8763H67.1626L66.5132 27.9691H66.3277C66.2813 27.9691 66.1885 27.9691 66.1421 28.0155C65.8638 28.0155 65.6319 28.1082 65.3536 28.1546H65.3073C65.2145 28.201 65.0753 28.201 64.9826 28.2474H64.8898C64.6579 28.3402 64.2404 28.5257 63.5911 28.804C63.5447 28.804 63.4983 28.8504 63.4055 28.8504H63.3592C63.3592 28.8504 63.2664 28.8967 63.22 28.8967C63.22 28.8967 63.1736 28.8967 63.1736 28.9431C63.1272 28.9431 63.0809 28.9895 63.0809 28.9895C63.0345 28.9895 62.9881 28.9431 62.9417 28.8967H62.8953C62.617 28.7576 62.2924 28.7576 61.9677 28.8967L60.8545 29.3606C60.7153 29.407 60.6226 29.4533 60.5298 29.4997C60.4834 29.5461 60.437 29.5461 60.3907 29.5925C60.1124 29.8244 60.0196 30.1955 60.066 30.6593V30.7057C60.066 30.7521 60.1124 30.7984 60.1124 30.8912V31.0767L60.066 31.0304C60.0196 30.984 60.0196 30.984 60.0196 30.9376H59.9732V30.8912L59.9268 30.8448C59.6949 30.5665 59.463 30.1491 59.2311 29.6853C59.1847 29.6389 59.1847 29.5461 59.1383 29.4997C59.1383 29.4533 59.0919 29.4533 59.0919 29.407C59.0919 29.3606 59.0455 29.2678 58.9992 29.175C58.9992 29.1287 58.9528 29.0823 58.9528 29.0359C58.9528 28.9895 58.9064 28.9431 58.86 28.8967C58.86 28.8504 58.86 28.804 58.8136 28.7576C58.8136 28.7112 58.7672 28.6648 58.7672 28.6184C58.7672 28.5721 58.7209 28.5257 58.7209 28.4793C58.7209 28.4329 58.6745 28.3865 58.6745 28.3402C58.6745 28.2938 58.6745 28.2474 58.6281 28.201V28.1546C58.6281 28.1546 58.6281 28.0619 58.5817 28.0155C58.6281 27.9691 58.6745 27.9691 58.7209 27.9227C58.7672 27.9227 58.8136 27.8763 58.86 27.8299C58.9064 27.7836 58.9528 27.7836 58.9992 27.7372C58.9992 27.7372 59.0455 27.7372 59.0455 27.6908C59.0919 27.6444 59.1383 27.6444 59.1383 27.598C59.1847 27.598 59.1847 27.5516 59.2311 27.5053C59.2775 27.5053 59.2775 27.4589 59.2775 27.4589C59.3702 27.3661 59.463 27.2733 59.5558 27.1342C59.5558 27.0878 59.5558 27.0878 59.6021 27.0414C59.6949 26.7631 59.7413 26.4848 59.6949 26.2529V26.1602C59.6949 26.1602 59.6485 26.1138 59.6485 26.0674C59.6485 26.0674 59.6485 26.021 59.6021 26.021V25.9282L59.463 25.7891V25.5108H59.3238V25.5108ZM55.1494 25.0006C55.1494 25.047 55.1494 25.0933 55.103 25.0933C54.9175 24.815 54.7783 24.3976 54.7319 23.8874L56.9119 24.2121H57.0511L58.3498 24.3976H58.1643C58.1179 24.3976 58.0251 24.3976 57.9324 24.4904L57.886 24.444C57.7932 24.444 57.7004 24.3976 57.6541 24.444H57.5149L57.4685 24.3976C57.4221 24.3512 57.4221 24.3512 57.3758 24.3512C57.3758 24.3048 57.3294 24.3048 57.283 24.3048H57.0511C57.0047 24.2585 56.9583 24.3048 56.9119 24.3048C56.8655 24.3048 56.7728 24.3512 56.68 24.3512C56.68 24.3512 56.6336 24.3976 56.5872 24.3976C55.9379 24.2121 55.4277 24.3976 55.1494 25.0006M57.4685 24.5367H57.4221H57.4685ZM61.1328 34.3699L60.7617 34.6019C60.066 34.9729 59.6021 35.1585 59.3702 35.1585C58.9992 35.1585 58.489 35.0193 57.9324 34.741C57.9324 34.7874 57.9787 34.8338 58.0251 34.8802C57.5149 34.2308 57.0975 33.2104 56.7728 31.8189C56.3553 30.0099 56.1698 28.8504 56.1698 28.2474L56.1234 28.201C56.077 28.0155 56.0307 27.8763 56.077 27.7836C55.8451 27.5053 55.6132 26.995 55.4741 26.2065C55.5204 26.2529 55.5668 26.2529 55.6596 26.2529C55.9379 26.2993 56.1698 26.3457 56.309 26.3921H56.3553C56.4481 26.3921 56.5409 26.4384 56.5872 26.4384C56.7264 26.4384 56.8192 26.4848 56.8655 26.5312C56.9583 26.624 57.0511 26.6704 57.0975 26.624C57.1902 26.5776 57.3294 26.5776 57.4685 26.5776L58.1179 26.7167C58.1643 26.7167 58.257 26.7631 58.3498 26.8559C58.4426 26.9023 58.489 26.995 58.5353 26.995C58.5817 26.995 58.6745 26.9487 58.7209 26.8559L58.8136 26.7167C58.8136 26.7167 58.7672 26.6704 58.7672 26.624C58.7209 26.5776 58.6281 26.4848 58.489 26.4384C58.257 26.2993 58.1643 26.2065 58.1179 26.0674V25.8819C57.9787 26.0674 57.9787 26.2529 58.0715 26.3921C57.9787 26.4848 57.886 26.5312 57.7468 26.5312H57.7004C57.6541 26.5312 57.6541 26.4848 57.6077 26.4848V26.1602L57.6541 25.7427C57.6541 25.2789 57.6077 24.9542 57.5149 24.815C57.6077 25.4644 57.6077 25.9746 57.5149 26.3457C57.3294 26.4848 57.0975 26.4384 56.9583 26.2993C57.0047 26.2529 57.0047 26.1602 57.0047 26.0674C57.0047 25.9746 57.0047 25.8819 57.0511 25.7891V25.2325C57.0511 25.1861 57.0047 25.0933 56.9583 24.9542C56.9467 24.8844 56.9144 24.8198 56.8655 24.7687H56.8192C56.9119 25.0006 57.0047 25.2325 57.0047 25.4644L56.9583 26.021C56.9583 26.0674 56.9119 26.1138 56.9119 26.1602C56.68 26.2529 56.4945 26.1602 56.4017 26.021C56.4017 25.9282 56.4017 25.7891 56.4481 25.6963H56.4017V25.6499C56.4017 25.6036 56.4017 25.6036 56.3553 25.6036C56.309 25.4644 56.2626 25.3253 56.2626 25.2789C56.2626 25.2325 56.2626 25.2325 56.2162 25.1861H56.1698C56.1698 25.1861 56.1234 25.1861 56.077 25.2325C56.077 25.2325 56.0307 25.2789 55.9379 25.3253C55.8915 25.3716 55.8451 25.3716 55.8451 25.418V25.4644H55.9379V25.5572L55.8915 25.6499C55.6596 25.6036 55.4741 25.5572 55.3349 25.4644C55.2885 25.3253 55.2885 25.1397 55.3349 24.9542C55.6132 24.444 56.077 24.2584 56.68 24.444C57.0975 24.2584 57.3758 24.3048 57.5149 24.5831C57.5149 24.5367 57.6077 24.5367 57.6077 24.5367C57.7004 24.4904 57.7932 24.4904 57.9324 24.4904C57.9787 24.4904 57.9787 24.5367 58.0251 24.5367C58.257 24.3976 58.4426 24.444 58.5817 24.5831V24.7687H58.6281C58.7209 25.047 58.7209 25.418 58.6281 25.7427C58.6993 25.7802 58.7799 25.7963 58.86 25.7891H59.2311C59.3238 26.021 59.3238 26.2993 59.2311 26.624C59.1847 26.7167 59.0455 26.8559 58.9528 26.9487C58.86 26.995 58.7673 27.0878 58.6281 27.1806C58.5353 27.227 58.4426 27.2733 58.2107 27.3661C58.0715 27.4125 58.0251 27.4589 58.0251 27.5516C58.0251 27.6444 58.1179 27.8763 58.257 28.1546C58.3498 28.3402 58.489 28.4793 58.5353 28.5721L58.8136 29.2678C59.1383 29.9172 59.4166 30.4738 59.7413 30.8448C59.9732 31.1231 60.2051 31.4014 60.3443 31.6797L60.669 31.4942C60.669 31.5406 60.6689 31.5406 60.7153 31.5406C60.7617 31.6797 60.8081 31.8189 60.8081 32.0044C60.8545 32.2827 60.9473 32.561 61.04 32.9321C61.04 33.164 61.0864 33.535 61.1328 34.3699V34.3699ZM64.0549 34.4627L62.9417 34.9265H62.849C62.849 34.9265 62.8026 34.9265 62.8026 34.9729H62.6634C62.617 34.9729 62.5243 34.9265 62.3851 34.8802C62.2924 34.8338 62.246 34.7874 62.246 34.7874H62.1996C62.1532 34.6946 62.1068 34.6482 62.0604 34.6019C62.0604 34.6019 62.0141 34.5555 62.0141 34.5091C61.9677 34.4163 61.9213 34.3699 61.8749 34.3236C61.8285 34.2308 61.8285 34.138 61.7358 33.9525C61.643 33.8133 61.5966 33.6742 61.5502 33.5814C61.4575 33.4423 61.4111 33.3031 61.3647 33.2104C61.3183 32.9784 61.2255 32.7465 61.0864 32.4682C61.04 32.3291 60.9936 32.1899 60.9936 32.0972C60.982 32.0274 60.9497 31.9628 60.9009 31.9116C60.9009 31.8189 60.9009 31.7725 60.8545 31.7261V31.6333L60.7617 31.4478C60.7153 31.3087 60.669 31.2159 60.6226 31.0767C60.4834 30.5202 60.6226 30.1491 61.04 30.0099L62.1532 29.5461C62.4315 29.4533 62.7098 29.4997 62.8953 29.6853L62.9417 29.7316C62.9881 29.7316 62.9881 29.778 62.9881 29.8244C62.9881 29.8708 63.0345 29.9172 63.1273 30.0563C63.1736 30.1491 63.22 30.2419 63.2664 30.381L64.1477 32.6538L64.2868 33.0712C64.3796 33.2567 64.426 33.4423 64.426 33.5814C64.6115 33.9989 64.426 34.3236 64.0549 34.4627M65.9566 29.0359C65.8175 29.2678 65.7247 29.4997 65.6319 29.778C65.4 30.4274 65.2145 31.1695 65.1681 32.0044C65.1681 32.1899 65.1217 32.3291 65.1217 32.5146V32.9784C65.1217 33.0712 65.1217 33.164 65.1681 33.2104L65.1217 33.2567C65.0753 33.2567 65.029 33.2567 65.029 33.3031C64.9362 33.3495 64.797 33.3959 64.7043 33.4423L64.5651 33.0248L63.5447 30.3346C63.4983 30.2419 63.4519 30.1027 63.4055 30.0099C63.3592 29.9172 63.3128 29.8244 63.2664 29.778C63.2664 29.778 63.2664 29.7316 63.22 29.7316H63.2664L65.1681 28.8967C65.2609 28.8504 65.4 28.8504 65.4928 28.804C65.7711 28.7112 66.003 28.6648 66.2349 28.6184C66.1421 28.7112 66.0494 28.8504 65.9566 29.0359M70.363 54.9176C66.7451 52.1346 63.22 48.3312 59.7877 43.4146C62.0141 42.3014 64.3332 40.9099 66.6987 39.1474C67.5336 38.5444 68.3685 37.9414 69.157 37.2457C70.4558 39.101 71.8472 40.9099 73.3779 42.5333C73.3315 42.5333 73.3315 42.5333 73.2851 42.5797C73.0532 42.8116 72.8213 43.1363 72.7285 43.6001C72.6821 43.7857 72.6821 43.8784 72.6821 43.9712C72.735 44.0285 72.7979 44.0757 72.8677 44.1104H72.9141V44.1567C72.9141 44.2031 72.9604 44.2495 72.9604 44.2495L73.0996 44.3887C73.146 44.3887 73.146 44.435 73.146 44.435C73.1924 44.435 73.1924 44.435 73.1924 44.4814H73.3779C73.3779 44.5278 73.4243 44.5742 73.4707 44.6206L73.5634 44.667C73.6098 44.7133 73.6562 44.7133 73.7026 44.7133H74.0736C74.2592 44.8525 74.3983 44.8989 74.5838 44.8061C74.6302 44.7597 74.6766 44.667 74.6766 44.5742V44.4814C74.723 44.4814 74.723 44.435 74.7694 44.435H74.8158C74.8621 44.435 74.9085 44.435 74.9549 44.3887L75.3724 44.8061C75.4252 44.8634 75.4881 44.9106 75.5579 44.9453C77.3204 46.6614 79.2221 48.2384 81.2166 49.6763C78.109 52.4129 74.4447 54.1291 70.363 54.9176M66.0958 45.2236C65.6319 45.4555 65.2145 45.7338 64.7507 46.0121C66.6524 48.6095 69.0179 51.0678 71.8009 53.2942C71.8936 53.2478 71.94 53.2014 72.0328 53.155C72.4038 52.9695 72.7749 52.7376 73.146 52.5057C70.363 50.2793 67.9975 47.821 66.0958 45.2236Z" fill="#221F20"/>
<path d="M71.0124 41.9303L69.8528 42.7652C71.8009 45.3626 74.12 47.8209 76.903 50.0937C76.9494 50.0473 77.0421 50.0009 77.0885 49.9545L78.0626 49.2588C75.326 46.986 72.9604 44.5277 71.0124 41.9303ZM80.2426 38.5907V38.6371V38.5907ZM80.2426 38.4979V38.5443V38.4979ZM75.1404 44.203C75.1868 44.1566 75.1868 44.1566 75.1404 44.203C75.1868 44.1566 75.1868 44.1566 75.1404 44.203Z" fill="#221F20"/>
<path d="M76.3464 37.7093H76.5319C76.5783 37.6629 76.6247 37.6629 76.6247 37.6629H76.6711C76.7175 37.6629 76.7638 37.6629 76.8102 37.6166L76.8566 37.7093V37.7557C76.8566 37.8021 76.903 37.8021 76.903 37.8021C76.903 37.8021 76.903 37.8485 76.8566 37.8485V37.8949C76.8566 37.9412 76.8566 37.9412 76.8102 37.9876C76.7638 37.9876 76.7638 38.034 76.7638 38.0804C76.7175 38.1268 76.7175 38.1732 76.6711 38.2659C76.6247 38.3123 76.6247 38.3587 76.6247 38.4051C76.6247 38.4051 76.6247 38.4515 76.5783 38.4515L76.3928 39.1008C76.3928 39.1472 76.3928 39.1472 76.3464 39.24C76.3464 39.3327 76.3 39.4255 76.2536 39.4719C76.2072 39.5646 76.2072 39.6574 76.1609 39.7966C76.1145 39.8893 76.1145 39.9821 76.0681 40.0749C76.0681 39.9821 76.0681 39.8429 76.0217 39.7502C76.0217 39.6574 75.9753 39.5183 75.9753 39.4255C75.9289 39.2864 75.9289 39.1936 75.9289 39.0544C75.8826 38.8689 75.8826 38.637 75.8362 38.4515V37.6629C75.8362 37.6629 75.8362 37.5238 75.7898 37.431C75.8362 37.4774 75.9289 37.5238 75.9753 37.5702C76.0217 37.5702 76.0681 37.6166 76.1609 37.6166" fill="white"/>
</svg>
